<svg xmlns="http://www.w3.org/2000/svg" xmlns:xlink="http://www.w3.org/1999/xlink" viewBox="0 0 36.65 41.22"><defs><style>.cls-1{font-size:9px;fill:#18536f;font-family:MyriadPro-Regular, Myriad Pro;}.cls-2{fill:none;stroke-linejoin:round;stroke-width:1.52px;stroke:url(#New_Gradient_Swatch_copy);}</style><linearGradient id="New_Gradient_Swatch_copy" y1="20.61" x2="36.65" y2="20.61" gradientUnits="userSpaceOnUse"><stop offset="0" stop-color="#3280a1"/><stop offset="1" stop-color="#002a41"/></linearGradient></defs><g id="Layer_2" data-name="Layer 2"><g id="Layer_1-2" data-name="Layer 1"><text class="cls-1" transform="translate(8.71 26.13)">24.7</text><path class="cls-2" d="M31.82,28.27,31.7,29c-.28,1.72-1.58,2.95-2.87,2.73l-2.34-.39,2-12,2.35.39c1.29.22,2.11,1.8,1.82,3.52l-.55,3.28M31.36,30l.54.12a3.19,3.19,0,0,0,3.66-2.61l.28-1.72a3.18,3.18,0,0,0-2.6-3.65l-.56-.08M6.21,3.59c.64,3.34,3.11,2.93,4.45,2.12A8.72,8.72,0,0,1,12.12,5l.05,0a13.72,13.72,0,0,1,4.39-.67h.05A13.68,13.68,0,0,1,21,5l.05,0a8.72,8.72,0,0,1,1.46.68c1.35.81,3.81,1.22,4.45-2.12m4.8,13.65c1-8.81-3.12-16.48-15-16.48h-.26C4.52.76.39,8.43,1.4,17.24M7.34,31.09l-2.48-12-2.33.48c-1.28.27-2,1.88-1.68,3.59L2,29c.35,1.71,1.69,2.89,3,2.62Zm12.77,7.09A1.21,1.21,0,0,0,18.9,37H14.8a1.22,1.22,0,0,0-1.22,1.21v1.07a1.22,1.22,0,0,0,1.22,1.21h4.1a1.21,1.21,0,0,0,1.21-1.21Zm.11.57h5.21c8.2,0,10-10.84,10-10.84"/></g></g></svg>