<svg xmlns="http://www.w3.org/2000/svg" xmlns:xlink="http://www.w3.org/1999/xlink" viewBox="0 0 35.5 41.32"><defs><linearGradient id="linear-gradient" y1="20.66" x2="35.5" y2="20.66" gradientUnits="userSpaceOnUse"><stop offset="0" stop-color="#3280a1"/><stop offset="1" stop-color="#002a41"/></linearGradient><linearGradient id="linear-gradient-2" x1="10.05" y1="20.62" x2="25.8" y2="20.62" xlink:href="#linear-gradient"/></defs><g id="Layer_2" data-name="Layer 2"><g id="Layer_1-2" data-name="Layer 1"><path d="M35.13,9.23c-.22-3.27-4.4-3.66-4.4-3.66C24.1,5.61,19.21.34,19.21.34A.92.92,0,0,0,19,.21v0l-.18,0A2.7,2.7,0,0,0,17.9,0a2.91,2.91,0,0,0-1.33.18l-.06,0h0l-.22.13S11.4,5.61,4.77,5.57c0,0-4.19.39-4.4,3.66,0,0-4.19,25.2,15.76,31.77h0a4.23,4.23,0,0,0,3.22,0h0C39.32,34.43,35.13,9.23,35.13,9.23ZM18.22,30.82A10.21,10.21,0,1,1,28.09,21,10.2,10.2,0,0,1,18.22,30.82Z" style="fill:url(#linear-gradient)"/><path d="M17.93,12.74a7.88,7.88,0,1,0,7.87,7.88A7.88,7.88,0,0,0,17.93,12.74Zm4.64,5.83L16.9,24.2a1.08,1.08,0,0,1-.76.31h0a1.12,1.12,0,0,1-.77-.32l-2.09-2.14a1.08,1.08,0,1,1,1.55-1.51l1.33,1.36L21.05,17a1.08,1.08,0,1,1,1.52,1.53Z" style="fill:url(#linear-gradient-2)"/></g></g></svg>