<svg xmlns="http://www.w3.org/2000/svg" xmlns:xlink="http://www.w3.org/1999/xlink" viewBox="0 0 36.81 37.14"><defs><linearGradient id="New_Gradient_Swatch" y1="18.23" x2="24.6" y2="18.23" gradientUnits="userSpaceOnUse"><stop offset="0" stop-color="#3280a1"/><stop offset="1" stop-color="#002a41"/></linearGradient><linearGradient id="New_Gradient_Swatch-2" x1="22.51" y1="27.61" x2="36.33" y2="27.61" xlink:href="#New_Gradient_Swatch"/><linearGradient id="New_Gradient_Swatch-3" x1="22.02" y1="27.61" x2="36.81" y2="27.61" xlink:href="#New_Gradient_Swatch"/></defs><g id="Layer_2" data-name="Layer 2"><g id="Layer_1-2" data-name="Layer 1"><path d="M20.58,30.08a10.64,10.64,0,0,1-1.09,1.27,9.81,9.81,0,0,1-7.19,3,9.8,9.8,0,0,1-7.19-3,9.75,9.75,0,0,1-3-7.18V12.3a9.75,9.75,0,0,1,3-7.18,9.8,9.8,0,0,1,7.19-3,9.81,9.81,0,0,1,7.19,3,9.79,9.79,0,0,1,3,7.18v5.56H24.6V12.3A11.85,11.85,0,0,0,21,3.61,11.82,11.82,0,0,0,12.3,0,11.82,11.82,0,0,0,3.61,3.61,11.82,11.82,0,0,0,0,12.3V24.17a11.82,11.82,0,0,0,3.61,8.69,11.82,11.82,0,0,0,8.69,3.61A11.82,11.82,0,0,0,21,32.86a12.58,12.58,0,0,0,2.12-2.78Z" style="fill:url(#New_Gradient_Swatch)"/><path d="M27.64,21.58a3,3,0,0,1-4.25,4.25,3,3,0,0,1,4.25-4.25Zm8.23-2.17L23.93,36.47l-1-.67,11.95-17ZM25.51,21.83a1.88,1.88,0,0,0-1.87,1.87A1.79,1.79,0,0,0,24.19,25a1.77,1.77,0,0,0,1.32.55A1.8,1.8,0,0,0,26.84,25a1.83,1.83,0,0,0,.55-1.33,1.88,1.88,0,0,0-1.88-1.87Zm9.94,7.55a3,3,0,0,1,0,4.26,3,3,0,1,1,0-4.26Zm-2.13.26a1.87,1.87,0,1,0,1.32,3.2,1.87,1.87,0,0,0-1.32-3.2Z" style="stroke-miterlimit:10;stroke-width:0.972493411456727px;fill:url(#New_Gradient_Swatch-2);stroke:url(#New_Gradient_Swatch-3)"/></g></g></svg>