<svg id="Layer_1" data-name="Layer 1" xmlns="http://www.w3.org/2000/svg" xmlns:xlink="http://www.w3.org/1999/xlink" viewBox="0 0 490.08 682.43"><defs><linearGradient id="linear-gradient" x1="256.68" y1="506.55" x2="746.77" y2="506.55" gradientUnits="userSpaceOnUse"><stop offset="0" stop-color="#3280a1"/><stop offset="1" stop-color="#002a41"/></linearGradient></defs><path d="M746.77,246.86c0-4.59,0-10.13,0-13.62,0-25.07-47.19-46.22-116.37-58-78-13.23-178.94-13.3-257.35,0-69.19,11.73-116.37,32.88-116.37,58,0,3.49,0,9,0,13.62,0,7.71,4.7,15.51,14.56,23.09V377.14c-20.24,19.58-18.1,41.3,0,57.88V564.34c-20.24,19.58-18.1,41.3,0,57.88V743c-5.38,5-14.48,12.4-14.33,23.37,0,.26,0,14.09,0,14.28C257.69,805.58,308,829.39,394,841c66.22,8.9,146.59,9.24,215.36,0,86.07-11.57,136.35-35.38,137.14-60.3V766.38c.15-11-8.95-18.39-14.32-23.37V622.22c18.09-16.58,20.23-38.3,0-57.88V435c18.08-16.58,20.23-38.3,0-57.88V270C742.05,262.37,746.77,254.57,746.77,246.86Zm-446.72,520V640.11c16.57,7.42,36.2,13.23,57.17,17.71v11.07a28.94,28.94,0,0,0,14.86,25.24v96.52C342.06,785,316.79,777,300.05,766.83Zm87.61-88.2-.55-.11h-1a9.63,9.63,0,0,1-9.62-9.63V437.69a9.64,9.64,0,0,1,9.16-9.62,1009.22,1009.22,0,0,0,116.06,6.72,1009.35,1009.35,0,0,0,116.06-6.72,9.64,9.64,0,0,1,9.16,9.62v231.2a9.64,9.64,0,0,1-9.63,9.63l-1.11.07a993.05,993.05,0,0,1-114.48,6.65A990.37,990.37,0,0,1,387.66,678.63ZM458.5,414.56q-21.63-.94-43.22-2.84V310.82c14.08,1.48,28.55,2.58,43.22,3.3Zm-86.42-2.1a28.92,28.92,0,0,0-14.86,25.23v4.4c-21.45-4.72-41.25-10.9-57.17-18.9V285.56c20,8.1,44.62,14.53,72,19.31Zm-14.86,58.16V629.3c-21.45-4.73-41.25-10.91-57.17-18.91V452.9C316.62,460.33,336.25,466.13,357.22,470.62ZM415.28,797v-96.2q21.57,1.86,43.22,2.79v96.81C443.75,799.64,429.26,798.5,415.28,797ZM703.4,766.83a120.57,120.57,0,0,1-16,8V646.45c5.57-2,10.91-4.08,16-6.34Zm0-156.44a172.26,172.26,0,0,1-16,7V459.25c5.57-2,10.91-4.09,16-6.35Zm0-187.2a172.26,172.26,0,0,1-16,7V291.35c5.59-1.82,10.93-3.75,16-5.79ZM719,236c-8.26,7.07-32.14,20.29-85.16,30.06-78.85,14.52-184.41,14.7-264.18,0-53-9.77-76.9-23-85.16-30.06a2.89,2.89,0,0,1-.06-4.32c17.37-15.88,66.37-27,88.18-31,77.63-14.09,178.41-14.49,258.26,0,21.81,4,70.82,15.13,88.19,31A2.9,2.9,0,0,1,719,236Zm-309-2.16c0,9.76-19.78,17.67-44.18,17.67s-44.17-7.91-44.17-17.67,19.77-17.67,44.17-17.67S410,224.06,410,233.82Zm93.16,423.79c-36.77,0-64.57-27-64.57-68.38,0-48.78,36-94.48,70.57-128.6,17.88,82,55.66,86.11,55.66,138.06C564.83,628.51,538.73,657.61,503.17,657.61Z" transform="translate(-256.68 -165.34)" style="fill:url(#linear-gradient)"/></svg>