<svg id="Layer_1" data-name="Layer 1" xmlns="http://www.w3.org/2000/svg" xmlns:xlink="http://www.w3.org/1999/xlink" viewBox="0 0 713 680.48"><defs><linearGradient id="linear-gradient" x1="359.18" y1="568.41" x2="785.71" y2="568.41" gradientUnits="userSpaceOnUse"><stop offset="0" stop-color="#3280a1"/><stop offset="1" stop-color="#002a41"/></linearGradient><linearGradient id="linear-gradient-2" x1="140.57" y1="506.71" x2="853.57" y2="506.71" xlink:href="#linear-gradient"/><linearGradient id="linear-gradient-3" x1="144.64" y1="652.25" x2="178.01" y2="652.25" xlink:href="#linear-gradient"/><linearGradient id="linear-gradient-4" x1="742.72" y1="756.64" x2="776.09" y2="756.64" xlink:href="#linear-gradient"/><linearGradient id="linear-gradient-5" x1="495.22" y1="536.31" x2="690.75" y2="536.31" xlink:href="#linear-gradient"/><linearGradient id="linear-gradient-6" x1="554.28" y1="426.33" x2="590.64" y2="426.33" xlink:href="#linear-gradient"/><linearGradient id="linear-gradient-7" x1="554.28" y1="706.13" x2="590.64" y2="706.13" xlink:href="#linear-gradient"/><linearGradient id="linear-gradient-8" x1="681.55" y1="568.4" x2="742.28" y2="568.4" xlink:href="#linear-gradient"/><linearGradient id="linear-gradient-9" x1="402.64" y1="568.4" x2="463.33" y2="568.4" xlink:href="#linear-gradient"/></defs><path d="M572.46,355.15c-117.61,0-213.28,95.67-213.28,213.25s95.67,213.28,213.28,213.28S785.71,686,785.71,568.4,690,355.15,572.46,355.15Zm0,390.16c-97.55,0-176.92-79.36-176.92-176.91s79.37-176.89,176.92-176.89S749.34,470.84,749.34,568.4,670,745.31,572.46,745.31Z" transform="translate(-140.57 -166.47)" style="fill:url(#linear-gradient)"/><path d="M638.62,296.38V263.75a50.3,50.3,0,0,0-18.18-97.28h-96a50.3,50.3,0,0,0-18.18,97.28v33.7c-60.6,15.28-112.84,50.32-150.48,97.95-1.19-.24-2-1.33-3.22-1.33H240.89a18.18,18.18,0,1,0,0,36.36h91.33a277.94,277.94,0,0,0-20.06,43.22H158.75a18.18,18.18,0,1,0,0,36.36h142.1c-2.74,13-3.49,26.62-4.34,40.2H235.77a18.19,18.19,0,0,0,0,36.37h60.92c1.08,15.77,2.95,31.24,6.56,46.2H213.93a18.18,18.18,0,1,0,0,36.36H314.56C355.36,773,456,847,574.17,847a278.19,278.19,0,0,0,155-46.91A18.18,18.18,0,1,0,709,769.78a241.89,241.89,0,0,1-134.83,40.81c-134,0-243-109-243-243.05,0-116.87,82.95-214.63,193-237.76.12,0,.18.12.29.12.46,0,.73-.46,1.19-.49a242.58,242.58,0,0,1,48.53-4.91c134,0,243,109,243,243a241.76,241.76,0,0,1-40.06,133.7,18.17,18.17,0,0,0,30.33,20,278,278,0,0,0,46.09-153.73C853.57,435.77,761.57,325.66,638.62,296.38ZM524.45,202.84h96a14.12,14.12,0,1,1,0,28.23h-96a14.12,14.12,0,1,1,0-28.23Zm18.18,88.48V267.43h59.62V291c-9.37-1-18.47-2.84-28.08-2.84C563.37,288.14,553.12,290.13,542.63,291.32Z" transform="translate(-140.57 -166.47)" style="fill:url(#linear-gradient-2)"/><path d="M161.32,635.57A16.69,16.69,0,1,0,178,652.26,16.68,16.68,0,0,0,161.32,635.57Z" transform="translate(-140.57 -166.47)" style="fill:url(#linear-gradient-3)"/><path d="M759.4,740a16.68,16.68,0,1,0,16.69,16.68A16.68,16.68,0,0,0,759.4,740Z" transform="translate(-140.57 -166.47)" style="fill:url(#linear-gradient-4)"/><path d="M685.42,480.29a18.18,18.18,0,1,0-25.71-25.71l-64.3,64.27a54,54,0,0,0-22.95-5.39,54.61,54.61,0,0,0-20.76,4.2l-25.44-25.44a18.18,18.18,0,1,0-25.71,25.71L525,542.35c-4.35,7.86-7.48,16.44-7.48,26a55,55,0,1,0,109.91,0c0-8.72-2.48-16.68-6.11-24ZM572.46,587A18.59,18.59,0,1,1,591,568.4,18.62,18.62,0,0,1,572.46,587Z" transform="translate(-140.57 -166.47)" style="fill:url(#linear-gradient-5)"/><path d="M572.46,456.68a18.18,18.18,0,0,0,18.18-18.19V414.17a18.18,18.18,0,1,0-36.36,0v24.32A18.18,18.18,0,0,0,572.46,456.68Z" transform="translate(-140.57 -166.47)" style="fill:url(#linear-gradient-6)"/><path d="M572.46,675.78A18.17,18.17,0,0,0,554.28,694v24.33a18.18,18.18,0,1,0,36.36,0V694A18.17,18.17,0,0,0,572.46,675.78Z" transform="translate(-140.57 -166.47)" style="fill:url(#linear-gradient-7)"/><path d="M724.1,550.21H699.73a18.19,18.19,0,0,0,0,36.37H724.1a18.19,18.19,0,0,0,0-36.37Z" transform="translate(-140.57 -166.47)" style="fill:url(#linear-gradient-8)"/><path d="M445.15,550.21H420.83a18.19,18.19,0,1,0,0,36.37h24.32a18.19,18.19,0,0,0,0-36.37Z" transform="translate(-140.57 -166.47)" style="fill:url(#linear-gradient-9)"/></svg>