<svg id="Layer_1" data-name="Layer 1" xmlns="http://www.w3.org/2000/svg" xmlns:xlink="http://www.w3.org/1999/xlink" viewBox="0 0 923.16 687.02"><defs><linearGradient id="linear-gradient" x1="38.42" y1="500" x2="961.58" y2="500" gradientUnits="userSpaceOnUse"><stop offset="0" stop-color="#3280a1"/><stop offset="1" stop-color="#002a41"/></linearGradient></defs><path d="M619.2,774.59a14.15,14.15,0,0,1-6.17,8.94A372.26,372.26,0,0,1,56.52,585.83C4.66,425.72,67,250.1,208.15,158.76a14.19,14.19,0,0,1,15.42,23.83C93.21,267,35.62,429.18,83.52,577.08c58.41,180.35,252.66,279.54,433,221.13a344.7,344.7,0,0,0,81.08-38.51,14.19,14.19,0,0,1,21.59,14.89ZM465.72,763.45a14.2,14.2,0,0,0-16-12.07A282.25,282.25,0,0,1,141.45,558.32C93.38,409.91,175,250.07,323.42,202a286.37,286.37,0,0,1,48.06-11.09,14.19,14.19,0,1,0-4-28.1A313.45,313.45,0,0,0,314.67,175a311.32,311.32,0,0,0,96.07,607.48,307.54,307.54,0,0,0,42.91-3,14.48,14.48,0,0,0,2.41-.55A14.16,14.16,0,0,0,465.72,763.45ZM492.4,238.67a14.06,14.06,0,0,0-8.36-6.92,248.82,248.82,0,0,0-150.61,1.18C202.08,275.47,129.83,417,172.37,548.3A250.87,250.87,0,0,0,337.15,710.54a14.12,14.12,0,0,0,8.53-.06h0a14.2,14.2,0,0,0,8.17-20.15,14.08,14.08,0,0,0-8.37-6.92,222,222,0,0,1,130.2-424.53,14.19,14.19,0,0,0,16.71-20.21ZM542.21,340.2a14.11,14.11,0,0,0-4.68-9.8A190.2,190.2,0,0,0,352.2,290.86c-99.42,32.19-154.1,139.27-121.9,238.68a189.48,189.48,0,0,0,53.35,82.35,14.19,14.19,0,0,0,19-21.1,161.15,161.15,0,0,1,215.9-239.3,14.19,14.19,0,0,0,23.67-11.29ZM529,421a128.62,128.62,0,0,0-240.81,89.76c1.13,3.48,2.44,7,3.92,10.5a14.3,14.3,0,0,0,13.13,8.67,13.94,13.94,0,0,0,4.3-.68h0a12,12,0,0,0,1.14-.42,14.2,14.2,0,0,0,7.55-18.59c-1.15-2.74-2.18-5.5-3.06-8.21A100.36,100.36,0,0,1,379.7,375.78c49.05-15.88,103.17,8.83,123.19,56.27A14.19,14.19,0,0,0,529,421Zm-54,29.26a67.74,67.74,0,0,0-132.13,18.45,14.19,14.19,0,1,0,28.37,1A39.35,39.35,0,0,1,448,459a39,39,0,0,1,1.9,13.53,14.21,14.21,0,0,0,13.68,14.69h.51a14.06,14.06,0,0,0,4.37-.69,14.25,14.25,0,0,0,9.81-13A67.63,67.63,0,0,0,475,450.27ZM353.7,661.72h26.61V598.37h43.25V572.63H380.31V547.08h43.25V521H353.7Zm84.37-142.11a16.09,16.09,0,0,0-4.86,11.77,16.77,16.77,0,0,0,4.91,12.2,16,16,0,0,0,11.88,5,15.76,15.76,0,0,0,11.64-4.93,16.33,16.33,0,0,0,4.87-11.91,16.56,16.56,0,0,0-4.91-12.06,16.5,16.5,0,0,0-23.53-.1Zm-1.32,142.11h26.12V557.6H436.75Zm45-144.31V661.72h25.93v-11a51.14,51.14,0,0,0,15.41,10.48,43.53,43.53,0,0,0,16.75,3.2q20.19,0,34.93-15.64t14.73-38.9q0-24.12-14.26-39.53t-34.64-15.4A44.11,44.11,0,0,0,523,558.47a49.19,49.19,0,0,0-15.31,10.62V517.41Zm73.68,70.2q8,8.57,8,22t-8.18,22.2a26.53,26.53,0,0,1-20.14,8.71,27.05,27.05,0,0,1-20.48-8.57q-8.14-8.55-8.14-22.44,0-13.59,8.14-22T535.11,579A26.62,26.62,0,0,1,555.39,587.61ZM619,569.09q-17.89,16.26-17.9,40.67,0,22.77,15.84,38.71a51.94,51.94,0,0,0,38.23,15.93A55.08,55.08,0,0,0,683,657.18a52.84,52.84,0,0,0,20-20,54.7,54.7,0,0,0,7.32-27.56,54,54,0,0,0-27.51-47.28,55.21,55.21,0,0,0-27.7-7.36Q634.71,554.93,619,569.09Zm57,18.8q8,8.39,8,21.77t-8.15,21.92a27.08,27.08,0,0,1-20.42,8.52q-12.27,0-20.27-8.42t-8-22q0-13.2,8.1-21.67a26.88,26.88,0,0,1,20.27-8.47Q668,579.52,676,587.89ZM819.2,517.41v59.33A52.87,52.87,0,0,0,801,560.38a49.12,49.12,0,0,0-23.21-5.45q-22.2,0-38,16A52.75,52.75,0,0,0,724,609.38q0,23,15.64,39t37.76,16a51.19,51.19,0,0,0,22.92-5.16,57.57,57.57,0,0,0,18.9-15.41v17.89h13.21V517.41Zm-11,62.57q11.9,12.15,11.9,30.21a42.82,42.82,0,0,1-5.31,21.32,38.62,38.62,0,0,1-15.15,15,41.78,41.78,0,0,1-20.83,5.55,39.56,39.56,0,0,1-20.41-5.59,41.09,41.09,0,0,1-15.15-15.63,42.19,42.19,0,0,1-.05-42.06,40.39,40.39,0,0,1,35.7-20.94A39.44,39.44,0,0,1,808.16,580ZM948.37,557.6v19.14a52.87,52.87,0,0,0-18.23-16.36,49.09,49.09,0,0,0-23.21-5.45q-22.2,0-38,16a52.79,52.79,0,0,0-15.79,38.47q0,23,15.65,39t37.75,16a51.16,51.16,0,0,0,22.92-5.16,57.37,57.37,0,0,0,18.9-15.41v17.89h13.21V557.6Zm-11,22.38q11.91,12.15,11.9,30.21a42.92,42.92,0,0,1-5.3,21.32,38.75,38.75,0,0,1-15.15,15,41.82,41.82,0,0,1-20.84,5.55,39.56,39.56,0,0,1-20.41-5.59,41.09,41.09,0,0,1-15.15-15.63,42.19,42.19,0,0,1,0-42.06A40.42,40.42,0,0,1,908,567.84,39.42,39.42,0,0,1,937.33,580Z" transform="translate(-38.42 -156.49)" style="fill:url(#linear-gradient)"/></svg>