<svg xmlns="http://www.w3.org/2000/svg" xmlns:xlink="http://www.w3.org/1999/xlink" viewBox="0 0 41.32 41.32"><defs><linearGradient id="linear-gradient" y1="20.66" x2="41.32" y2="20.66" gradientUnits="userSpaceOnUse"><stop offset="0" stop-color="#3280a1"/><stop offset="1" stop-color="#002a41"/></linearGradient><linearGradient id="linear-gradient-2" y1="20.66" x2="41.32" y2="20.66" xlink:href="#linear-gradient"/><linearGradient id="linear-gradient-3" x1="2.6" y1="20.66" x2="38.72" y2="20.66" xlink:href="#linear-gradient"/><linearGradient id="linear-gradient-4" x1="1.62" y1="20.66" x2="39.7" y2="20.66" xlink:href="#linear-gradient"/><linearGradient id="linear-gradient-5" x1="11.6" y1="20.75" x2="30.41" y2="20.75" xlink:href="#linear-gradient"/><clipPath id="clip-path" transform="translate(0 0)"><path d="M20.66,1.1A19.57,19.57,0,0,1,34.5,34.5,19.57,19.57,0,0,1,6.83,6.83,19.41,19.41,0,0,1,20.66,1.1m0-1.1A20.66,20.66,0,1,0,41.32,20.66,20.66,20.66,0,0,0,20.66,0Z" style="fill:url(#linear-gradient)"/></clipPath><linearGradient id="linear-gradient-7" x1="27.96" y1="6.34" x2="41.32" y2="6.34" xlink:href="#linear-gradient"/><linearGradient id="linear-gradient-8" x1="23.51" y1="8.46" x2="41.32" y2="8.46" xlink:href="#linear-gradient"/><linearGradient id="linear-gradient-9" x1="5.15" y1="17.6" x2="41.32" y2="17.6" xlink:href="#linear-gradient"/><linearGradient id="linear-gradient-10" y1="21.85" x2="39.73" y2="21.85" xlink:href="#linear-gradient"/><linearGradient id="linear-gradient-11" y1="32.53" x2="18.53" y2="32.53" xlink:href="#linear-gradient"/><linearGradient id="linear-gradient-12" y1="34.26" x2="14.88" y2="34.26" xlink:href="#linear-gradient"/><linearGradient id="linear-gradient-13" x1="29.12" y1="6.37" x2="40.23" y2="6.37" xlink:href="#linear-gradient"/><linearGradient id="linear-gradient-14" x1="24.67" y1="8.48" x2="40.23" y2="8.48" xlink:href="#linear-gradient"/><linearGradient id="linear-gradient-15" x1="7.44" y1="17.06" x2="40.23" y2="17.06" xlink:href="#linear-gradient"/><linearGradient id="linear-gradient-16" x1="1.1" y1="22.38" x2="37.45" y2="22.38" xlink:href="#linear-gradient"/><linearGradient id="linear-gradient-17" x1="1.1" y1="32.5" x2="17.38" y2="32.5" xlink:href="#linear-gradient"/><linearGradient id="linear-gradient-18" x1="1.1" y1="34.23" x2="13.72" y2="34.23" xlink:href="#linear-gradient"/></defs><g id="Layer_2" data-name="Layer 2"><g id="Layer_1-2" data-name="Layer 1"><path d="M20.66,1.1A19.43,19.43,0,0,1,34.5,6.83a19.72,19.72,0,0,1,4.19,6.22,19.6,19.6,0,0,1,0,15.23A19.59,19.59,0,0,1,28.28,38.69a19.6,19.6,0,0,1-15.23,0A19.65,19.65,0,0,1,2.63,28.28,19.61,19.61,0,0,1,13.05,2.63,19.41,19.41,0,0,1,20.66,1.1m0-1.1A20.66,20.66,0,1,0,41.32,20.66,20.66,20.66,0,0,0,20.66,0Z" transform="translate(0 0)" style="fill:url(#linear-gradient-2)"/><path d="M20.66,38.72A18.06,18.06,0,1,1,38.72,20.66,18.08,18.08,0,0,1,20.66,38.72Zm0-35a17,17,0,1,0,17,17A17,17,0,0,0,20.66,3.68Z" transform="translate(0 0)" style="fill:url(#linear-gradient-3)"/><path d="M20.93,39.7h-.27c-.62,0-1.24,0-1.85-.09l-.25,0,0-.51.26,0a17.93,17.93,0,0,0,1.8.09h.26Zm1.36-.06-.05-.51.25,0a18.17,18.17,0,0,0,1.8-.27l.25-.05.09.5-.24.05c-.61.12-1.23.21-1.85.27Zm-5.08-.25-.25,0a18.4,18.4,0,0,1-1.81-.45l-.25-.07.15-.49.24.08a17.56,17.56,0,0,0,1.77.43l.25,0ZM26,39l-.15-.49.24-.07c.58-.18,1.15-.38,1.71-.61l.24-.1.19.47-.23.09c-.58.24-1.17.45-1.76.63Zm-12.34-.6-.23-.1a14.51,14.51,0,0,1-1.69-.8l-.23-.12.24-.44.23.12c.53.28,1.08.54,1.64.77l.23.1Zm15.8-.79-.24-.44.23-.12c.53-.29,1.05-.6,1.55-.94l.21-.14.29.42-.21.14a17.52,17.52,0,0,1-1.61,1Zm-19.11-.93-.22-.14c-.51-.34-1-.72-1.5-1.11l-.19-.16.32-.39.2.16a15.73,15.73,0,0,0,1.46,1.08l.21.14Zm22.24-1.1-.32-.39.19-.16q.7-.59,1.35-1.23l.18-.18.36.36-.18.18c-.44.44-.91.86-1.38,1.26ZM7.39,34.32l-.18-.18c-.44-.44-.86-.91-1.26-1.39l-.16-.19.39-.32.16.19q.59.7,1.23,1.35l.18.18Zm27.83-1.39-.39-.32.16-.19c.39-.47.75-1,1.09-1.46l.14-.21.42.28-.14.21c-.35.51-.72,1-1.12,1.5ZM5,31.47l-.14-.21c-.35-.52-.67-1.06-1-1.61l-.12-.22.45-.24.12.23c.29.53.6,1,.94,1.55l.14.21Zm32.36-1.61-.45-.24L37,29.4a17.69,17.69,0,0,0,.78-1.65l.1-.23.47.19-.1.24c-.24.57-.51,1.14-.8,1.69ZM3.17,28.2,3.07,28c-.24-.58-.45-1.17-.63-1.76L2.37,26l.48-.15.08.24a17.39,17.39,0,0,0,.61,1.71l.1.24Zm35.64-1.77-.48-.15L38.4,26a15.61,15.61,0,0,0,.44-1.76l0-.25.5.1,0,.25a18.4,18.4,0,0,1-.45,1.81ZM2,24.65,2,24.4c-.12-.61-.21-1.23-.28-1.85l0-.25.5-.05,0,.25c.06.6.15,1.21.26,1.8l0,.25Zm37.55-1.87-.51-.05,0-.25c.06-.6.09-1.21.09-1.82v-.25l.5,0v.29c0,.62,0,1.25-.09,1.87Zm-38-1.84v-.26h0q0-1,.09-1.86l0-.25.51,0,0,.26c0,.59-.08,1.19-.08,1.79v.26Zm37.51-1.88,0-.26q-.09-.9-.27-1.8l0-.24.49-.1,0,.25c.12.61.22,1.23.28,1.84l0,.26ZM2.43,17.32l-.5-.1L2,17a18.4,18.4,0,0,1,.45-1.81l.07-.25.49.15-.08.24c-.17.58-.32,1.18-.43,1.77Zm36-1.84-.07-.24a17.46,17.46,0,0,0-.62-1.71l-.09-.23.46-.2.1.24a18.25,18.25,0,0,1,.63,1.75l.08.25Zm-35-1.66L3,13.63l.1-.23a17.31,17.31,0,0,1,.79-1.69L4,11.48l.45.24L4.3,12c-.28.53-.55,1.08-.78,1.64Zm33.68-1.71L37,11.89c-.29-.53-.6-1.06-.94-1.56l-.14-.21.42-.28.14.21a18.39,18.39,0,0,1,1,1.6l.12.22Zm-32-1.51-.42-.29.14-.21c.35-.51.72-1,1.12-1.5l.16-.19.39.32-.16.19a15.41,15.41,0,0,0-1.08,1.47Zm30-1.53L35,8.87c-.38-.46-.79-.91-1.22-1.34l-.18-.18L33.92,7l.18.18q.66.66,1.26,1.38l.16.2ZM7.36,7.75,7,7.4l.18-.18A18.23,18.23,0,0,1,8.56,6l.2-.16.32.39-.2.16c-.46.38-.91.8-1.34,1.23ZM32.59,6.47l-.2-.16c-.47-.38-1-.75-1.46-1.08l-.21-.14L31,4.67l.21.14a17.58,17.58,0,0,1,1.5,1.11l.2.16ZM10.13,5.41,9.85,5l.21-.15a18.3,18.3,0,0,1,1.6-1l.22-.12.24.45-.22.12c-.53.28-1.06.6-1.56.93Zm19.46-1-.22-.11a17.69,17.69,0,0,0-1.65-.78l-.23-.1L27.68,3l.24.09c.57.24,1.14.51,1.69.8l.22.12ZM13.31,3.64l-.2-.47.24-.09a18.25,18.25,0,0,1,1.75-.63l.25-.08.14.49-.24.07a17.46,17.46,0,0,0-1.71.62ZM26.25,3,26,2.91c-.58-.17-1.17-.32-1.76-.44l-.25,0,.09-.5.25.05c.61.12,1.22.27,1.82.45l.24.07Zm-9.48-.44-.1-.5L16.92,2c.6-.12,1.22-.21,1.84-.28l.26,0,.05.5-.26,0A18,18,0,0,0,17,2.49Zm5.93-.3-.25,0c-.59,0-1.19-.08-1.79-.08h-.25l0-.51h.28c.61,0,1.23,0,1.83.09l.26,0Z" transform="translate(0 0)" style="fill:url(#linear-gradient-4)"/><path d="M23.66,33.69H20.81V29.93H19.39v3.76H16.54V29.93H11.6l.5-3h2.68V14.73H11.64v-3h4.9V7.82h2.85v3.87h1.42V7.82h2.85v3.87h.46a4.72,4.72,0,0,1,4.72,4.71v.47a4.13,4.13,0,0,1-1,2.65,5.33,5.33,0,0,1,2.53,4.54v.53a5.34,5.34,0,0,1-5.34,5.34H23.66Zm-2.42-.43h2V29.5h1.84A4.91,4.91,0,0,0,30,24.59v-.53a4.9,4.9,0,0,0-2.54-4.3l-.24-.13.19-.21a3.68,3.68,0,0,0,1-2.55V16.4a4.29,4.29,0,0,0-4.29-4.28h-.89V8.25h-2v3.87H19V8.25H17v3.87h-4.9V14.3h3.14v13H12.47l-.36,2.18H17v3.76h2V29.5h2.28Zm1.84-5.9H19V21.29h4.12a3,3,0,0,1,0,6.07Zm-3.69-.43h3.69a2.61,2.61,0,0,0,2.6-2.6,2.61,2.61,0,0,0-2.6-2.6H19.39Zm3.15-8.18H19V14h3.58a2.37,2.37,0,1,1,0,4.74Zm-3.15-.43h3.15a1.94,1.94,0,0,0,1.94-1.94,1.95,1.95,0,0,0-1.94-1.94H19.39Z" transform="translate(0 0)" style="fill:url(#linear-gradient-5)"/><path d="M20.66,1.1A19.57,19.57,0,0,1,34.5,34.5,19.57,19.57,0,0,1,6.83,6.83,19.41,19.41,0,0,1,20.66,1.1m0-1.1A20.66,20.66,0,1,0,41.32,20.66,20.66,20.66,0,0,0,20.66,0Z" transform="translate(0 0)" style="fill:url(#linear-gradient)"/><g style="clip-path:url(#clip-path)"><polygon points="41.32 12.68 27.96 0 41.32 0 41.32 12.68" style="fill:url(#linear-gradient-7)"/><polygon points="41.32 16.91 23.51 0 27.96 0 41.32 12.68 41.32 16.91" style="fill:url(#linear-gradient-8)"/><polygon points="41.32 33.52 39.73 35.2 5.16 2.38 7.41 0 23.51 0 41.32 16.91 41.32 33.52" style="fill:url(#linear-gradient-9)"/><polygon points="39.73 35.2 33.91 41.32 18.54 41.32 0 23.73 0 7.8 5.16 2.38 39.73 35.2" style="fill:url(#linear-gradient-10)"/><polygon points="14.88 41.32 0 27.2 0 23.73 18.54 41.32 14.88 41.32" style="fill:url(#linear-gradient-11)"/><polygon points="0 27.2 14.88 41.32 0 41.32 0 27.2" style="fill:url(#linear-gradient-12)"/><polygon points="40.23 11.64 29.12 1.1 40.23 1.1 40.23 11.64" style="fill:url(#linear-gradient-13)"/><polygon points="40.23 15.87 24.67 1.1 29.12 1.1 40.23 11.64 40.23 15.87" style="fill:url(#linear-gradient-14)"/><polygon points="40.23 30.1 37.45 33.03 7.44 4.54 10.71 1.1 24.67 1.1 40.23 15.87 40.23 30.1" style="fill:url(#linear-gradient-15)"/><polygon points="37.45 33.03 30.61 40.23 17.38 40.23 1.1 24.77 1.1 11.22 7.44 4.54 37.45 33.03" style="fill:url(#linear-gradient-16)"/><polygon points="13.72 40.23 1.1 28.24 1.1 24.77 17.38 40.23 13.72 40.23" style="fill:url(#linear-gradient-17)"/><polygon points="1.1 28.24 13.72 40.23 1.1 40.23 1.1 28.24" style="fill:url(#linear-gradient-18)"/></g></g></g></svg>