<svg xmlns="http://www.w3.org/2000/svg" xmlns:xlink="http://www.w3.org/1999/xlink" viewBox="0 0 84.35 62.77"><defs><style>.cls-1{fill:url(#linear-gradient);}</style><linearGradient id="linear-gradient" y1="31.39" x2="84.35" y2="31.39" gradientUnits="userSpaceOnUse"><stop offset="0" stop-color="#4591e8"/><stop offset="0.6" stop-color="#213167"/><stop offset="1" stop-color="#202c5f"/></linearGradient></defs><g id="Layer_2" data-name="Layer 2"><g id="Layer_1-2" data-name="Layer 1"><path class="cls-1" d="M53.07,56.48a1.34,1.34,0,0,1-.57.81A34,34,0,1,1,15.51.21a1.29,1.29,0,0,1,1.41,2.17A31.42,31.42,0,0,0,51.09,55.12a1.26,1.26,0,0,1,1-.18,1.28,1.28,0,0,1,.82.56A1.35,1.35,0,0,1,53.07,56.48Zm-14-1a1.29,1.29,0,0,0-1.46-1.1A25.85,25.85,0,0,1,26,4.16a24.71,24.71,0,0,1,4.39-1,1.31,1.31,0,0,0,1.11-1.47A1.27,1.27,0,0,0,31,.83a1.27,1.27,0,0,0-1-.25,28.65,28.65,0,0,0-4.83,1.11A28.45,28.45,0,0,0,34,57.2a27.1,27.1,0,0,0,3.92-.28.87.87,0,0,0,.22-.05A1.29,1.29,0,0,0,39,55.46ZM41.48,7.51a1.25,1.25,0,0,0-.76-.63A22.88,22.88,0,1,0,27.29,50.62a1.3,1.3,0,0,0,.78,0h0a1.28,1.28,0,0,0,.75-1.84,1.25,1.25,0,0,0-.76-.63A20.29,20.29,0,1,1,40,9.36a1.31,1.31,0,0,0,1-.1,1.25,1.25,0,0,0,.63-.76A1.27,1.27,0,0,0,41.48,7.51ZM46,16.79a1.29,1.29,0,0,0-.43-.9A17.32,17.32,0,1,0,22.41,41.61a1.28,1.28,0,0,0,.87.33,1.32,1.32,0,0,0,.39-.06,1.3,1.3,0,0,0,.47-2.2A14.72,14.72,0,1,1,43.87,17.82a1.3,1.3,0,0,0,2.16-1Zm-1.2,7.38a11.75,11.75,0,0,0-21.29-.76,11.64,11.64,0,0,0-.71,9c.1.32.22.64.35,1a1.31,1.31,0,0,0,1.2.79,1.39,1.39,0,0,0,.4-.06h0l.1,0a1.3,1.3,0,0,0,.69-1.7c-.1-.25-.2-.5-.28-.75A9.17,9.17,0,0,1,31.18,20a9.21,9.21,0,0,1,11.26,5.14,1.28,1.28,0,0,0,.71.7,1.3,1.3,0,0,0,1.68-1.71Zm-4.94,2.67a6.19,6.19,0,0,0-12.07,1.69,1.3,1.3,0,1,0,2.59.09,3.6,3.6,0,0,1,7-1,3.72,3.72,0,0,1,.17,1.24,1.29,1.29,0,0,0,1.25,1.34h0a1.27,1.27,0,0,0,.39-.06,1.31,1.31,0,0,0,.9-1.19A5.94,5.94,0,0,0,39.89,26.84ZM28.81,46.16h2.43V40.37h3.95V38H31.24V35.69h3.95V33.3H28.81Zm7.71-13a1.45,1.45,0,0,0-.45,1.07,1.55,1.55,0,0,0,.45,1.12,1.5,1.5,0,0,0,2.15,0,1.58,1.58,0,0,0,0-2.19,1.5,1.5,0,0,0-2.15,0Zm-.12,13h2.38V36.65H36.4ZM40.5,33V46.16h2.37v-1a4.91,4.91,0,0,0,1.41,1,4,4,0,0,0,1.53.29A4.25,4.25,0,0,0,49,45a5,5,0,0,0,1.35-3.56,5.16,5.16,0,0,0-1.3-3.61,4.15,4.15,0,0,0-3.17-1.4,4,4,0,0,0-1.61.32,4.42,4.42,0,0,0-1.4,1V33Zm6.74,6.41a2.81,2.81,0,0,1,.73,2,2.84,2.84,0,0,1-.75,2,2.42,2.42,0,0,1-1.84.79,2.48,2.48,0,0,1-1.87-.78,2.88,2.88,0,0,1-.74-2,2.78,2.78,0,0,1,.74-2,2.51,2.51,0,0,1,1.87-.77A2.45,2.45,0,0,1,47.24,39.39Zm5.81-1.69A5,5,0,0,0,52.86,45a4.76,4.76,0,0,0,3.49,1.46,5,5,0,0,0,2.55-.66,4.78,4.78,0,0,0,1.82-1.83,5,5,0,0,0-1.84-6.84,5,5,0,0,0-2.53-.67A4.79,4.79,0,0,0,53.05,37.7Zm5.21,1.72a3.06,3.06,0,0,1,0,4,2.62,2.62,0,0,1-3.72,0,2.84,2.84,0,0,1-.73-2,2.74,2.74,0,0,1,.74-2,2.46,2.46,0,0,1,1.86-.78A2.5,2.5,0,0,1,58.26,39.42ZM71.34,33V38.4a4.83,4.83,0,0,0-1.67-1.5,4.51,4.51,0,0,0-2.12-.49,4.68,4.68,0,0,0-3.47,1.46,4.81,4.81,0,0,0-1.44,3.51,4.9,4.9,0,0,0,1.43,3.56,4.63,4.63,0,0,0,3.45,1.47,4.71,4.71,0,0,0,2.09-.47,5.33,5.33,0,0,0,1.73-1.41v1.63h1.21V33Zm-1,5.71a3.77,3.77,0,0,1,1.09,2.76,3.82,3.82,0,0,1-.49,1.95,3.43,3.43,0,0,1-1.38,1.37,3.79,3.79,0,0,1-1.9.51,3.63,3.63,0,0,1-1.87-.51,3.72,3.72,0,0,1-1.38-1.43,3.84,3.84,0,0,1,0-3.84,3.77,3.77,0,0,1,5.94-.81Zm12.81-2V38.4a4.89,4.89,0,0,0-1.66-1.5,4.53,4.53,0,0,0-2.12-.49,4.66,4.66,0,0,0-3.47,1.46,4.78,4.78,0,0,0-1.45,3.51,4.9,4.9,0,0,0,1.43,3.56,4.64,4.64,0,0,0,3.45,1.47,4.76,4.76,0,0,0,2.1-.47,5.4,5.4,0,0,0,1.72-1.41v1.63h1.21V36.65Zm-1,2a3.77,3.77,0,0,1,1.09,2.76,3.91,3.91,0,0,1-.48,1.95,3.52,3.52,0,0,1-1.39,1.37,3.79,3.79,0,0,1-1.9.51,3.63,3.63,0,0,1-1.87-.51,3.72,3.72,0,0,1-1.38-1.43,3.9,3.9,0,0,1-.52-1.92,3.83,3.83,0,0,1,.51-1.92,3.7,3.7,0,0,1,3.27-1.91A3.61,3.61,0,0,1,82.13,38.69Z"/></g></g></svg>