<svg xmlns="http://www.w3.org/2000/svg" viewBox="0 0 78.05 70.43"><defs><style>.cls-1{fill:#e9eff1;}.cls-1,.cls-10,.cls-11,.cls-12,.cls-13,.cls-14,.cls-2,.cls-3,.cls-4,.cls-5,.cls-6,.cls-7,.cls-8,.cls-9{fill-rule:evenodd;}.cls-2{fill:#fff;}.cls-3{fill:#4587bd;}.cls-4{fill:#4592f5;}.cls-5{fill:#374a5c;}.cls-6{fill:#679ecc;}.cls-7{fill:#78b7ea;}.cls-8{fill:#4d617a;}.cls-9{fill:#efb744;}.cls-10{fill:#f4c256;}.cls-11{fill:#f7dc9a;}.cls-12{fill:#625eb6;}.cls-13{fill:#524f98;}.cls-14{fill:#6e69c9;}</style></defs><g id="Layer_2" data-name="Layer 2"><g id="Layer_1-2" data-name="Layer 1"><path class="cls-1" d="M70.17,56.57A3.67,3.67,0,1,0,66.5,52.9,3.67,3.67,0,0,0,70.17,56.57Z"/><path class="cls-2" d="M73,51c-.71-.94-1.74-.82-2,.05a1.91,1.91,0,0,1,2.05.27c.36.37.26.32.35.51A1.88,1.88,0,0,0,73,51Zm-2,.07s0,0,0,0,0,0,0,0Zm2.24,1.61Zm.18-.77a.2.2,0,0,0,0-.07A.2.2,0,0,1,73.37,51.92Z"/><path class="cls-3" d="M73.07,54.35a2.39,2.39,0,0,0-.06-3,1.68,1.68,0,0,0-2.6.22,2.39,2.39,0,0,0,0,3A1.69,1.69,0,0,0,73.07,54.35Z"/><path class="cls-4" d="M72.79,54.06a1.89,1.89,0,0,0,0-2.39,1.33,1.33,0,0,0-2.06.18,1.87,1.87,0,0,0,0,2.38A1.33,1.33,0,0,0,72.79,54.06Z"/><path class="cls-5" d="M72.41,53.65a1.2,1.2,0,0,0,0-1.52.85.85,0,0,0-1.31.12,1.2,1.2,0,0,0,0,1.52A.85.85,0,0,0,72.41,53.65Z"/><path class="cls-1" d="M71.54,54.27a.27.27,0,0,0,0-.35.19.19,0,0,0-.29,0,.29.29,0,0,0,0,.35A.2.2,0,0,0,71.54,54.27Z"/><path class="cls-6" d="M71,51.06a1.53,1.53,0,0,0-.08.54v0a1.43,1.43,0,0,1,1.87,0,1.37,1.37,0,0,1,.44,1,1.07,1.07,0,0,0,.17-.85c-.09-.19,0-.14-.35-.51A1.91,1.91,0,0,0,71,51.06Zm.09,1.22h0l0,0,0,0Z"/><path class="cls-7" d="M70.88,51.64a1.28,1.28,0,0,0,.17.64s-.16.2,0,0,1-.42,1.31-.12a1,1,0,0,1,.28.87h0a.92.92,0,0,0,.54-.3,1.38,1.38,0,0,0-.44-1A1.43,1.43,0,0,0,70.88,51.64Z"/><path class="cls-8" d="M71.05,52.28a1.43,1.43,0,0,0,1.26.76,1.25,1.25,0,0,0,.35,0,1,1,0,0,0-.28-.87c-.29-.3-1.13-.11-1.31.12S71.05,52.27,71.05,52.28Z"/><path class="cls-1" d="M73,52.23a.45.45,0,0,0-.28-.5.33.33,0,0,0-.42.28.47.47,0,0,0,.29.5A.32.32,0,0,0,73,52.23Z"/><path class="cls-9" d="M74,59.12a3.79,3.79,0,0,0-7.58,0h0l0,9.41c0,.52,0,.81,1.1,1.43a7.84,7.84,0,0,0,5.36,0c1.09-.62,1.06-.91,1.11-1.43V59.12Z"/><path class="cls-10" d="M66.37,59.12h0v0Zm7.59,0a3.64,3.64,0,0,0-3.36-3.37A3,3,0,0,0,67.34,59V69.87s-.61-.35.15.09,4.28.63,5.36,0,1.06-.91,1.11-1.43Z"/><path class="cls-11" d="M73.25,69.69a1.79,1.79,0,0,1-.4.27,4.55,4.55,0,0,1-1.09.44V59.93a3.77,3.77,0,0,0-.91-2.3c-.24-.38-.17-.64.08-.79a1.5,1.5,0,0,1,1.52.23,3.34,3.34,0,0,1,.8,2.13Z"/><path class="cls-9" d="M70.17,56.57A3.67,3.67,0,1,0,66.5,52.9,3.67,3.67,0,0,0,70.17,56.57Z"/><path class="cls-10" d="M70.59,55.86a3.16,3.16,0,1,0-3.16-3.16A3.15,3.15,0,0,0,70.59,55.86Z"/><path class="cls-11" d="M71,51.06c.29-.87,1.32-1,2-.05a1.88,1.88,0,0,1,.37.83,1.1,1.1,0,0,1-.17.86.92.92,0,0,1-.53.3h0a1.18,1.18,0,0,1-.34,0,1.43,1.43,0,0,1-1.26-.76,1.28,1.28,0,0,1-.17-.64Z"/><polygon class="cls-12" points="16.89 23.62 16.89 42.68 17.02 43.3 17.19 43.9 17.42 44.51 17.7 45.11 18.03 45.7 18.41 46.28 18.85 46.86 19.33 47.42 19.86 47.97 20.45 48.52 21.09 49.04 21.77 49.55 22.51 50.05 23.3 50.53 24.13 50.98 24.99 51.41 25.87 51.81 26.79 52.17 27.72 52.51 28.68 52.82 29.66 53.1 30.66 53.35 31.66 53.57 32.69 53.76 33.73 53.92 34.77 54.05 35.83 54.16 36.89 54.23 37.96 54.27 39.02 54.29 40.09 54.27 41.15 54.23 42.22 54.16 43.27 54.05 44.32 53.92 45.35 53.76 46.38 53.57 47.39 53.35 48.39 53.1 49.37 52.82 50.32 52.51 51.26 52.17 52.17 51.81 53.06 51.41 53.92 50.98 54.75 50.53 55.54 50.05 56.28 49.55 56.96 49.04 57.6 48.52 58.18 47.97 58.72 47.42 59.2 46.86 59.63 46.28 60.02 45.7 60.34 45.11 60.63 44.51 60.85 43.9 61.03 43.29 61.16 42.68 61.16 23.62 61.03 24.23 60.85 24.84 60.63 25.45 60.34 26.05 60.02 26.64 59.63 27.22 59.2 27.8 58.72 28.36 58.18 28.91 57.6 29.46 56.96 29.98 56.28 30.5 55.54 30.99 54.75 31.47 53.92 31.93 53.06 32.35 52.17 32.75 51.26 33.12 50.32 33.45 49.37 33.76 48.39 34.04 47.39 34.29 46.38 34.51 45.35 34.7 44.32 34.86 43.27 35 42.22 35.1 41.15 35.17 40.09 35.22 39.02 35.23 37.96 35.22 36.89 35.17 35.83 35.1 34.77 34.99 33.73 34.86 32.69 34.7 31.66 34.51 30.66 34.29 29.66 34.04 28.68 33.76 27.72 33.45 26.79 33.12 25.87 32.75 24.99 32.35 24.13 31.93 23.3 31.47 22.51 30.99 21.77 30.5 21.09 29.98 20.45 29.46 19.86 28.91 19.33 28.36 18.85 27.8 18.41 27.22 18.03 26.64 17.7 26.05 17.42 25.45 17.19 24.84 17.02 24.24 16.89 23.62"/><polygon class="cls-13" points="19.54 47.64 19.86 47.97 20.45 48.52 21.09 49.04 21.77 49.55 22.51 50.05 23.3 50.53 24.13 50.98 24.99 51.41 25.87 51.81 26.79 52.17 27.72 52.51 28.68 52.82 28.77 52.84 28.77 33.79 28.68 33.76 27.72 33.45 26.79 33.12 25.87 32.75 24.99 32.35 24.13 31.93 23.3 31.47 22.51 30.99 21.77 30.5 21.09 29.98 20.45 29.46 19.86 28.91 19.54 28.58 19.54 47.64"/><polygon class="cls-14" points="49.34 52.83 49.37 52.82 50.32 52.51 51.26 52.17 52.17 51.81 53.06 51.41 53.92 50.98 54.75 50.53 55.54 50.05 56.28 49.55 56.96 49.04 57.6 48.52 58.18 47.97 58.56 47.58 58.56 28.52 58.18 28.91 57.6 29.46 56.96 29.98 56.28 30.5 55.54 30.99 54.75 31.47 53.92 31.93 53.06 32.35 52.17 32.75 51.26 33.12 50.32 33.45 49.37 33.76 49.34 33.77 49.34 52.83"/><polygon class="cls-14" points="78.05 22.53 78.05 24.2 39.03 46.73 39.03 45.06 78.05 22.53"/><polygon class="cls-12" points="39.03 45.06 39.03 46.73 0 24.2 0 22.53 39.03 45.06"/><polygon class="cls-13" points="39.03 0 78.05 22.53 39.03 45.06 0 22.53 39.03 0"/><path class="cls-9" d="M38.92,21.69,61,25a11.42,11.42,0,0,1,9.75,11.34V49.77c0,.4-1.08.27-1.08.07V37.28A11.39,11.39,0,0,0,59.88,26L38.14,22.66Z"/><polygon class="cls-12" points="34.25 21.67 34.25 22.39 34.34 22.92 34.6 23.43 35.04 23.91 35.65 24.34 36.01 24.53 36.4 24.69 36.8 24.83 37.23 24.94 37.67 25.03 38.11 25.09 38.57 25.13 39.02 25.15 39.48 25.13 39.94 25.09 40.38 25.03 40.82 24.94 41.24 24.83 41.65 24.69 42.04 24.53 42.4 24.34 43.01 23.91 43.45 23.43 43.71 22.92 43.8 22.39 43.8 21.66 43.71 22.19 43.45 22.7 43.01 23.18 42.4 23.61 42.04 23.8 41.65 23.97 41.24 24.11 40.82 24.22 40.38 24.31 39.94 24.37 39.48 24.41 39.02 24.42 38.57 24.41 38.11 24.37 37.67 24.31 37.23 24.22 36.8 24.11 36.4 23.97 36.01 23.8 35.65 23.61 35.04 23.18 34.6 22.7 34.34 22.19 34.25 21.67"/><path class="cls-14" d="M42.4,19.72a7.44,7.44,0,0,0-6.75,0c-1.86,1.07-1.86,2.82,0,3.89a7.44,7.44,0,0,0,6.75,0C44.27,22.54,44.26,20.79,42.4,19.72Z"/></g></g></svg>