<svg xmlns="http://www.w3.org/2000/svg" xmlns:xlink="http://www.w3.org/1999/xlink" viewBox="0 0 60.16 83.2"><defs><style>.cls-1{fill:url(#_ÂÁ_Ï_ÌÌ_È_ËÂÌÚ_5);}.cls-2{fill:#60afbd;}.cls-3{fill:url(#_ÂÁ_Ï_ÌÌ_È_ËÂÌÚ_5-2);}.cls-4{fill:url(#_ÂÁ_Ï_ÌÌ_È_ËÂÌÚ_5-3);}.cls-5{fill:url(#_ÂÁ_Ï_ÌÌ_È_ËÂÌÚ_5-4);}.cls-6{fill:url(#_ÂÁ_Ï_ÌÌ_È_ËÂÌÚ_5-5);}.cls-7{fill:#2f3089;}.cls-8{fill:url(#_ÂÁ_Ï_ÌÌ_È_ËÂÌÚ_5-6);}.cls-9{fill:url(#_ÂÁ_Ï_ÌÌ_È_ËÂÌÚ_5-7);}.cls-10{fill:url(#_ÂÁ_Ï_ÌÌ_È_ËÂÌÚ_5-8);}.cls-11{fill:url(#_ÂÁ_Ï_ÌÌ_È_ËÂÌÚ_5-9);}.cls-12{fill:url(#_ÂÁ_Ï_ÌÌ_È_ËÂÌÚ_5-10);}.cls-13{fill:url(#_ÂÁ_Ï_ÌÌ_È_ËÂÌÚ_5-11);}.cls-14{fill:url(#_ÂÁ_Ï_ÌÌ_È_ËÂÌÚ_5-12);}.cls-15{fill:url(#_ÂÁ_Ï_ÌÌ_È_ËÂÌÚ_5-13);}.cls-16{fill:url(#_ÂÁ_Ï_ÌÌ_È_ËÂÌÚ_5-14);}.cls-17{fill:url(#_ÂÁ_Ï_ÌÌ_È_ËÂÌÚ_5-15);}.cls-18{fill:url(#_ÂÁ_Ï_ÌÌ_È_ËÂÌÚ_5-16);}.cls-19{fill:url(#_ÂÁ_Ï_ÌÌ_È_ËÂÌÚ_5-17);}.cls-20{fill:url(#_ÂÁ_Ï_ÌÌ_È_ËÂÌÚ_5-18);}.cls-21{fill:url(#_ÂÁ_Ï_ÌÌ_È_ËÂÌÚ_5-19);}.cls-22{fill:url(#_ÂÁ_Ï_ÌÌ_È_ËÂÌÚ_5-20);}.cls-23{fill:url(#_ÂÁ_Ï_ÌÌ_È_ËÂÌÚ_2);}.cls-24{fill:url(#_ÂÁ_Ï_ÌÌ_È_ËÂÌÚ_2-2);}.cls-25{fill:url(#_ÂÁ_Ï_ÌÌ_È_ËÂÌÚ_2-3);}.cls-26{fill:url(#_ÂÁ_Ï_ÌÌ_È_ËÂÌÚ_2-4);}.cls-27{fill:url(#_ÂÁ_Ï_ÌÌ_È_ËÂÌÚ_2-5);}.cls-28{fill:url(#_ÂÁ_Ï_ÌÌ_È_ËÂÌÚ_2-6);}.cls-29{fill:url(#_ÂÁ_Ï_ÌÌ_È_ËÂÌÚ_2-7);}</style><linearGradient id="_ÂÁ_Ï_ÌÌ_È_ËÂÌÚ_5" x1="34.97" y1="13.7" x2="2.45" y2="70.03" gradientUnits="userSpaceOnUse"><stop offset="0" stop-color="#59569a"/><stop offset="0.15" stop-color="#484793"/><stop offset="0.35" stop-color="#3a3a8d"/><stop offset="0.59" stop-color="#32328a"/><stop offset="1" stop-color="#2f3089"/></linearGradient><linearGradient id="_ÂÁ_Ï_ÌÌ_È_ËÂÌÚ_5-2" x1="37.42" y1="0.08" x2="0.07" y2="64.78" xlink:href="#_ÂÁ_Ï_ÌÌ_È_ËÂÌÚ_5"/><linearGradient id="_ÂÁ_Ï_ÌÌ_È_ËÂÌÚ_5-3" x1="46.39" y1="14.44" x2="10.51" y2="76.59" xlink:href="#_ÂÁ_Ï_ÌÌ_È_ËÂÌÚ_5"/><linearGradient id="_ÂÁ_Ï_ÌÌ_È_ËÂÌÚ_5-4" x1="54.42" y1="6.7" x2="48.36" y2="17.2" xlink:href="#_ÂÁ_Ï_ÌÌ_È_ËÂÌÚ_5"/><linearGradient id="_ÂÁ_Ï_ÌÌ_È_ËÂÌÚ_5-5" x1="49.45" y1="4.45" x2="8.48" y2="75.42" xlink:href="#_ÂÁ_Ï_ÌÌ_È_ËÂÌÚ_5"/><linearGradient id="_ÂÁ_Ï_ÌÌ_È_ËÂÌÚ_5-6" x1="57.58" y1="28.56" x2="41.38" y2="56.61" xlink:href="#_ÂÁ_Ï_ÌÌ_È_ËÂÌÚ_5"/><linearGradient id="_ÂÁ_Ï_ÌÌ_È_ËÂÌÚ_5-7" x1="62.66" y1="33.19" x2="47.2" y2="59.97" xlink:href="#_ÂÁ_Ï_ÌÌ_È_ËÂÌÚ_5"/><linearGradient id="_ÂÁ_Ï_ÌÌ_È_ËÂÌÚ_5-8" x1="51.3" y1="35.09" x2="36.78" y2="60.24" xlink:href="#_ÂÁ_Ï_ÌÌ_È_ËÂÌÚ_5"/><linearGradient id="_ÂÁ_Ï_ÌÌ_È_ËÂÌÚ_5-9" x1="55.82" y1="41.95" x2="43.14" y2="63.92" xlink:href="#_ÂÁ_Ï_ÌÌ_È_ËÂÌÚ_5"/><linearGradient id="_ÂÁ_Ï_ÌÌ_È_ËÂÌÚ_5-10" x1="45.42" y1="39.99" x2="31.76" y2="63.64" xlink:href="#_ÂÁ_Ï_ÌÌ_È_ËÂÌÚ_5"/><linearGradient id="_ÂÁ_Ï_ÌÌ_È_ËÂÌÚ_5-11" x1="49.89" y1="47.06" x2="38.18" y2="67.34" xlink:href="#_ÂÁ_Ï_ÌÌ_È_ËÂÌÚ_5"/><linearGradient id="_ÂÁ_Ï_ÌÌ_È_ËÂÌÚ_5-12" x1="39.29" y1="45.88" x2="27" y2="67.17" xlink:href="#_ÂÁ_Ï_ÌÌ_È_ËÂÌÚ_5"/><linearGradient id="_ÂÁ_Ï_ÌÌ_È_ËÂÌÚ_5-13" x1="35.56" y1="60.97" x2="30.73" y2="69.33" xlink:href="#_ÂÁ_Ï_ÌÌ_È_ËÂÌÚ_5"/><linearGradient id="_ÂÁ_Ï_ÌÌ_È_ËÂÌÚ_5-14" x1="42.36" y1="58.61" x2="34.81" y2="71.69" xlink:href="#_ÂÁ_Ï_ÌÌ_È_ËÂÌÚ_5"/><linearGradient id="_ÂÁ_Ï_ÌÌ_È_ËÂÌÚ_5-15" x1="33.04" y1="52.26" x2="22.35" y2="70.78" xlink:href="#_ÂÁ_Ï_ÌÌ_È_ËÂÌÚ_5"/><linearGradient id="_ÂÁ_Ï_ÌÌ_È_ËÂÌÚ_5-16" x1="37.92" y1="57.71" x2="28.37" y2="74.25" xlink:href="#_ÂÁ_Ï_ÌÌ_È_ËÂÌÚ_5"/><linearGradient id="_ÂÁ_Ï_ÌÌ_È_ËÂÌÚ_5-17" x1="26.04" y1="61.69" x2="18.46" y2="74.82" xlink:href="#_ÂÁ_Ï_ÌÌ_È_ËÂÌÚ_5"/><linearGradient id="_ÂÁ_Ï_ÌÌ_È_ËÂÌÚ_5-18" x1="30.81" y1="67.59" x2="24.59" y2="78.36" xlink:href="#_ÂÁ_Ï_ÌÌ_È_ËÂÌÚ_5"/><linearGradient id="_ÂÁ_Ï_ÌÌ_È_ËÂÌÚ_5-19" x1="19.23" y1="70.34" x2="14.37" y2="78.75" xlink:href="#_ÂÁ_Ï_ÌÌ_È_ËÂÌÚ_5"/><linearGradient id="_ÂÁ_Ï_ÌÌ_È_ËÂÌÚ_5-20" x1="23.94" y1="76.48" x2="20.56" y2="82.33" xlink:href="#_ÂÁ_Ï_ÌÌ_È_ËÂÌÚ_5"/><linearGradient id="_ÂÁ_Ï_ÌÌ_È_ËÂÌÚ_2" x1="64.15" y1="39.97" x2="51.48" y2="61.91" gradientUnits="userSpaceOnUse"><stop offset="0" stop-color="#59569a"/><stop offset="0.16" stop-color="#625fa0"/><stop offset="0.68" stop-color="#7977af"/><stop offset="1" stop-color="#8280b5"/></linearGradient><linearGradient id="_ÂÁ_Ï_ÌÌ_È_ËÂÌÚ_2-2" x1="57.44" y1="48.25" x2="47.31" y2="65.79" xlink:href="#_ÂÁ_Ï_ÌÌ_È_ËÂÌÚ_2"/><linearGradient id="_ÂÁ_Ï_ÌÌ_È_ËÂÌÚ_2-3" x1="51.17" y1="54.69" x2="42.68" y2="69.41" xlink:href="#_ÂÁ_Ï_ÌÌ_È_ËÂÌÚ_2"/><linearGradient id="_ÂÁ_Ï_ÌÌ_È_ËÂÌÚ_2-4" x1="44.28" y1="63.69" x2="38.68" y2="73.39" xlink:href="#_ÂÁ_Ï_ÌÌ_È_ËÂÌÚ_2"/><linearGradient id="_ÂÁ_Ï_ÌÌ_È_ËÂÌÚ_2-5" x1="39.28" y1="65.04" x2="32.79" y2="76.28" xlink:href="#_ÂÁ_Ï_ÌÌ_È_ËÂÌÚ_2"/><linearGradient id="_ÂÁ_Ï_ÌÌ_È_ËÂÌÚ_2-6" x1="32.72" y1="72.67" x2="28.45" y2="80.06" xlink:href="#_ÂÁ_Ï_ÌÌ_È_ËÂÌÚ_2"/><linearGradient id="_ÂÁ_Ï_ÌÌ_È_ËÂÌÚ_2-7" x1="26.48" y1="79" x2="23.79" y2="83.66" xlink:href="#_ÂÁ_Ï_ÌÌ_È_ËÂÌÚ_2"/></defs><g id="Layer_2" data-name="Layer 2"><g id="Layer_1-2" data-name="Layer 1"><path class="cls-1" d="M34,13.2c-.19-.34-.76,0-.94.57-1.07,3.34-1.69,18.08-3.27,22-.13.33-.43.53-.59.39-.82-.73-1.86-5.08-2.64-8.4-.09-.42-.87,0-.94.57-.46,3.25-1.93,10.06-2.61,10.45C21.58,39.62,20,19,19.14,17.11c-.16-.37-.76,0-.94.57C17.65,19.38,16.3,38,14.58,39c-1.19.69-2.29-7-2.88-9-.12-.41-.85,0-.94.56C9.7,36.73,8.83,48.2,7.64,48.65c-.7.6-1.34-5.36-1.46-6.23-.5-3.74-1-10.43-1.92-12-.19-.34-.76,0-.94.56-.55,1.71-.75,5.32-2,15.74C.93,49.7.78,52,.08,53.18V68.66L37.41,47.1V35.56C36.71,36.17,34.94,14.79,34,13.2Z"/><path class="cls-2" d="M.08,68.73H0a.06.06,0,0,1,0-.06V53.18a.06.06,0,0,1,0,0c.58-1,.78-2.76,1-5,.05-.46.11-.94.17-1.45.47-3.79.78-6.63,1-8.91a45.56,45.56,0,0,1,1-6.84A1.08,1.08,0,0,1,4,30.18a.35.35,0,0,1,.34.17C5,31.57,5.47,35.62,5.87,39.2c.14,1.17.26,2.28.39,3.21,0,.09,0,.22,0,.4.45,3.71.86,5.66,1.21,5.8a.07.07,0,0,0,.07,0l0,0c.75-.31,1.44-5.82,2.05-10.68.32-2.6.66-5.28,1-7.34a1,1,0,0,1,.78-.79.28.28,0,0,1,.31.21c.16.54.36,1.49.59,2.59.52,2.54,1.24,6,2,6.35a.23.23,0,0,0,.21,0c1.14-.65,2.15-9.62,2.83-15.56.32-2.87.58-5.13.76-5.68a1.09,1.09,0,0,1,.78-.77.3.3,0,0,1,.3.2,66.23,66.23,0,0,1,1.22,8c.7,5.59,1.65,13.23,2.47,13.64a.08.08,0,0,0,.09,0c.61-.35,2.07-6.84,2.57-10.4a1,1,0,0,1,.81-.8.27.27,0,0,1,.29.22c.66,2.85,1.77,7.62,2.61,8.36a.11.11,0,0,0,.11,0,.59.59,0,0,0,.36-.37c.88-2.19,1.47-7.85,2-12.84A70.58,70.58,0,0,1,33,13.74a1.05,1.05,0,0,1,.74-.75.35.35,0,0,1,.34.17c.46.8,1.11,6.39,1.75,11.79.56,4.78,1.2,10.18,1.54,10.54a.06.06,0,0,1,.06,0,.07.07,0,0,1,0,.07V47.1a.08.08,0,0,1,0,.07L.11,68.72ZM.15,53.2V68.53L37.33,47.06V35.64c-.36-.16-.8-3.55-1.64-10.67C35.05,19.58,34.4,14,34,13.24a.2.2,0,0,0-.19-.1,1,1,0,0,0-.62.65,71.63,71.63,0,0,0-1.27,9.14c-.52,5-1.11,10.66-2,12.87a.74.74,0,0,1-.46.47.3.3,0,0,1-.25-.05c-.81-.72-1.8-4.73-2.66-8.44a.11.11,0,0,0-.14-.1.84.84,0,0,0-.65.66c-.4,2.82-1.89,10.07-2.65,10.51a.26.26,0,0,1-.24,0c-.82-.41-1.61-6.22-2.55-13.76a67.67,67.67,0,0,0-1.21-8,.15.15,0,0,0-.16-.1,1,1,0,0,0-.64.66c-.17.54-.43,2.79-.75,5.64-.72,6.33-1.7,15-2.91,15.69a.37.37,0,0,1-.34,0c-.8-.36-1.5-3.74-2.06-6.46-.23-1.09-.42-2-.58-2.57a.15.15,0,0,0-.16-.11.87.87,0,0,0-.64.67c-.35,2.05-.68,4.73-1,7.33C9,44.41,8.46,48.39,7.68,48.71a.2.2,0,0,1-.21,0c-.43-.16-.83-2-1.32-5.92,0-.18,0-.31-.05-.4-.12-.93-.24-2-.38-3.22-.4-3.56-.85-7.6-1.53-8.78a.17.17,0,0,0-.19-.1.92.92,0,0,0-.61.65,46.07,46.07,0,0,0-1,6.81c-.26,2.28-.57,5.12-1,8.91-.06.5-.11,1-.17,1.44C.94,50.4.74,52.19.15,53.2Z"/><path class="cls-3" d="M37.41.08V.22L.08,21.78v-.15ZM.08,25.71,37.41,4.15V4L.08,25.56Zm0,38.93v.14L37.41,43.23v-.14Zm0-35L37.41,8.08V7.94L.08,29.49Zm0,3.93L37.41,12v-.15L.08,33.42Zm0,3.93L37.41,16V15.8L.08,37.36Zm0,3.93L37.41,19.88v-.15L.08,41.29Zm0,3.93L37.41,23.81v-.15L.08,45.22Zm0,3.93L37.41,27.74V27.6L.08,49.15Zm0,3.94L37.41,31.67v-.14L.08,53.08Zm0,3.93L37.41,35.6v-.14L.08,57Zm0,3.93L37.41,39.54v-.15L.08,60.94Z"/><path class="cls-2" d="M.08,64.86H0a.07.07,0,0,1,0-.07v-.14a.08.08,0,0,1,0-.07L37.37,43a.11.11,0,0,1,.08,0,.08.08,0,0,1,0,.07v.14a.09.09,0,0,1,0,.07L.11,64.85Zm0-3.69a.05.05,0,0,1,0,0,.05.05,0,0,1,0-.06v-.15a.06.06,0,0,1,0-.06L37.37,39.32h.08a.09.09,0,0,1,0,.07v.15a.07.07,0,0,1,0,.06L.11,61.15Zm0-3.94H0a.05.05,0,0,1,0-.06V57A.05.05,0,0,1,0,57L37.37,35.39h.08a.09.09,0,0,1,0,.07v.14a.08.08,0,0,1,0,.07L.11,57.22Zm0-3.93H0a.06.06,0,0,1,0-.06v-.15A.08.08,0,0,1,0,53L37.37,31.46a.11.11,0,0,1,.08,0,.08.08,0,0,1,0,.07v.14a.09.09,0,0,1,0,.07L.11,53.29Zm0-3.93H0a.07.07,0,0,1,0-.07v-.14a.08.08,0,0,1,0-.07L37.37,27.53a.11.11,0,0,1,.08,0,.08.08,0,0,1,0,.07v.14a.09.09,0,0,1,0,.07L.11,49.36Zm0-3.93H0a.07.07,0,0,1,0-.07v-.14a.08.08,0,0,1,0-.07L37.37,23.6a.06.06,0,0,1,.08,0,.07.07,0,0,1,0,.06v.15a.09.09,0,0,1,0,.07L.11,45.43Zm0-3.93H0a.08.08,0,0,1,0-.07v-.14a.07.07,0,0,1,0-.07L37.37,19.67a.06.06,0,0,1,.08,0,.07.07,0,0,1,0,.06v.15a.06.06,0,0,1,0,.06L.11,41.5Zm0-3.93H0a.08.08,0,0,1,0-.07v-.14a.07.07,0,0,1,0-.07L37.37,15.74a.07.07,0,0,1,.11.06V16a.07.07,0,0,1,0,.06L.11,37.57Zm0-3.93H0a.08.08,0,0,1,0-.07v-.15a.06.06,0,0,1,0-.06L37.37,11.8a.11.11,0,0,1,.08,0,.09.09,0,0,1,0,.07V12a.07.07,0,0,1,0,.06L.11,33.64Zm0-3.94H0a.05.05,0,0,1,0-.06v-.15a.06.06,0,0,1,0-.06L37.37,7.87h.08a.09.09,0,0,1,0,.07v.14a.08.08,0,0,1,0,.07L.11,29.7Zm0-3.93H0a.06.06,0,0,1,0-.06v-.15a.05.05,0,0,1,0-.06L37.37,3.94h.08a.09.09,0,0,1,0,.07v.14a.08.08,0,0,1,0,.07L.11,25.77Zm0-3.93H0a.06.06,0,0,1,0-.06v-.15a.08.08,0,0,1,0-.07L37.37,0h.08a.08.08,0,0,1,0,.07V.22a.09.09,0,0,1,0,.07L.11,21.84Z"/><g id="_16" data-name="16"><path class="cls-4" d="M47.6,15.14C35.09,41.54,6.05,73.64,5.77,73.85,8.5,72.27,34.31,53.62,49.91,17.26Z"/><path class="cls-2" d="M5.77,73.93a.08.08,0,0,1-.07,0,.08.08,0,0,1,0-.1C6,73.59,35,41.51,47.54,15.11a.07.07,0,0,1,.12,0L50,17.21a.07.07,0,0,1,0,.08A145.76,145.76,0,0,1,23.07,58.65C14.33,68.06,7.12,73.16,5.81,73.92ZM47.63,15.27C35.88,40,9.75,69.59,6.21,73.48A104,104,0,0,0,23,58.55,145.77,145.77,0,0,0,49.82,17.28Z"/><polygon class="cls-5" points="50.33 4.96 51.97 5.29 52.47 18.91 50.7 18.55 47.82 13.85 50.33 4.96"/><path class="cls-2" d="M52.47,19l-1.79-.36a.05.05,0,0,1,0,0l-2.88-4.7a.06.06,0,0,1,0-.06l2.5-8.89a.09.09,0,0,1,.09-.06L52,5.21a.09.09,0,0,1,.06.07l.49,13.62a.06.06,0,0,1,0,.06Zm-1.72-.5,1.64.33L51.9,5.35l-1.52-.3L47.9,13.84Z"/><path class="cls-6" d="M50.33,5l-9.47,8.21,2.85,1.55C28.42,50.15,1.72,71.13,1.44,71.34l4.33,2.51c.28-.21,27-21.23,42.32-56.73l2.61,1.43Z"/><path class="cls-2" d="M5.77,73.93h0L1.4,71.4a.09.09,0,0,1,0-.06.07.07,0,0,1,0-.06,132.3,132.3,0,0,0,15.5-15.1A158.53,158.53,0,0,0,43.62,14.75l-2.79-1.52a.05.05,0,0,1,0-.05.06.06,0,0,1,0-.07L50.28,4.9a.08.08,0,0,1,.08,0,.08.08,0,0,1,0,.07l.37,13.59s0,.05,0,.06a.08.08,0,0,1-.08,0l-2.53-1.39A158.55,158.55,0,0,1,21.36,58.77,132.76,132.76,0,0,1,5.81,73.91Zm-4.19-2.6,4.18,2.43A134.37,134.37,0,0,0,21.24,58.67,158,158,0,0,0,48,17.09a.07.07,0,0,1,0,0,.06.06,0,0,1,.06,0l2.49,1.37-.37-13.3-9.25,8,2.75,1.5a.08.08,0,0,1,0,.1A158.29,158.29,0,0,1,17,56.28,135,135,0,0,1,1.58,71.33Z"/><g id="Axonometric_Cube" data-name="Axonometric Cube"><g id="Cube_face_-_top" data-name="Cube face - top"><polygon class="cls-2" points="46.76 28.6 41.31 25.45 46.76 22.31 52.21 25.45 46.76 28.6"/><path class="cls-2" d="M46.76,28.68h0l-5.45-3.15a.07.07,0,0,1,0-.06.08.08,0,0,1,0-.07l5.45-3.15h.08l5.44,3.15a.07.07,0,0,1,0,.07.06.06,0,0,1,0,.06L46.8,28.67Zm-5.29-3.22,5.29,3.05,5.29-3.05L46.76,22.4Z"/></g><g id="Cube_face_-_left" data-name="Cube face - left"><polygon class="cls-7" points="46.76 59.72 41.31 56.57 41.31 25.45 46.76 28.6 46.76 59.72"/><path class="cls-2" d="M46.76,59.79h0l-5.45-3.14a.09.09,0,0,1,0-.07V25.46a.08.08,0,0,1,0-.07.11.11,0,0,1,.08,0l5.45,3.14a.1.1,0,0,1,0,.07V59.71a.08.08,0,0,1,0,.07Zm-5.37-3.26,5.29,3V28.64l-5.29-3.05Z"/></g><g id="Cube_face_-_right" data-name="Cube face - right"><polygon class="cls-8" points="52.21 56.57 46.76 59.72 46.76 28.6 52.21 25.45 52.21 56.57"/><path class="cls-2" d="M46.76,59.79h0a.08.08,0,0,1,0-.07V28.6a.1.1,0,0,1,0-.07l5.45-3.14a.09.09,0,0,1,.07,0,.07.07,0,0,1,0,.07V56.57a.08.08,0,0,1,0,.07L46.8,59.78Zm.08-31.15V59.58l5.29-3V25.59Z"/></g></g><g id="Axonometric_Cube-2" data-name="Axonometric Cube"><g id="Cube_face_-_top-2" data-name="Cube face - top"><polygon class="cls-2" points="52.21 33.45 46.76 30.3 52.21 27.16 57.65 30.3 52.21 33.45"/><path class="cls-2" d="M52.21,33.52h0l-5.45-3.14a.08.08,0,0,1,0-.14l5.45-3.14a.09.09,0,0,1,.07,0l5.45,3.14a.08.08,0,0,1,0,.14l-5.45,3.14Zm-5.3-3.22,5.3,3.06L57.5,30.3l-5.29-3.06Z"/></g><g id="Cube_face_-_left-2" data-name="Cube face - left"><polygon class="cls-7" points="52.21 62.86 46.76 59.72 46.76 30.3 52.21 33.45 52.21 62.86"/><path class="cls-2" d="M52.21,62.94h0l-5.45-3.15a.08.08,0,0,1,0-.07V30.3a.1.1,0,0,1,0-.07.11.11,0,0,1,.08,0l5.44,3.15a.06.06,0,0,1,0,.06V62.86a.08.08,0,0,1,0,.07Zm-5.37-3.27,5.29,3.06V33.49l-5.29-3.06Z"/></g><g id="Cube_face_-_right-2" data-name="Cube face - right"><polygon class="cls-9" points="57.65 59.72 52.21 62.86 52.21 33.45 57.65 30.3 57.65 59.72"/><path class="cls-2" d="M52.21,62.94h0a.08.08,0,0,1,0-.07V33.44a.06.06,0,0,1,0-.06l5.44-3.15a.11.11,0,0,1,.08,0,.1.1,0,0,1,0,.07V59.71a.08.08,0,0,1,0,.07l-5.45,3.15Zm.07-29.45V62.73l5.3-3.06V30.43Z"/></g></g><g id="Axonometric_Cube-3" data-name="Axonometric Cube"><g id="Cube_face_-_top-3" data-name="Cube face - top"><polygon class="cls-2" points="41.31 35.62 35.87 32.47 41.31 29.33 46.76 32.47 41.31 35.62"/><path class="cls-2" d="M41.31,35.69h0l-5.44-3.14a.07.07,0,0,1,0-.07.06.06,0,0,1,0-.06l5.44-3.15a.11.11,0,0,1,.08,0l5.45,3.15a.08.08,0,0,1,0,.06.08.08,0,0,1,0,.07l-5.45,3.14ZM36,32.47l5.29,3.06,5.3-3.06-5.3-3Z"/></g><g id="Cube_face_-_left-3" data-name="Cube face - left"><polygon class="cls-7" points="41.31 62.86 35.87 59.72 35.87 32.47 41.31 35.62 41.31 62.86"/><path class="cls-2" d="M41.31,62.94h0l-5.44-3.15a.07.07,0,0,1,0-.07V32.47a.06.06,0,0,1,0-.06,0,0,0,0,1,.07,0l5.45,3.14a.1.1,0,0,1,0,.07V62.86a.1.1,0,0,1,0,.07Zm-5.37-3.27,5.3,3.06V35.66l-5.3-3Z"/></g><g id="Cube_face_-_right-3" data-name="Cube face - right"><polygon class="cls-10" points="46.76 59.72 41.31 62.86 41.31 35.62 46.76 32.47 46.76 59.72"/><path class="cls-2" d="M41.31,62.94h0a.09.09,0,0,1,0-.07V35.62a.09.09,0,0,1,0-.07l5.45-3.14a.06.06,0,0,1,.08,0,.08.08,0,0,1,0,.06V59.71a.08.08,0,0,1,0,.07l-5.45,3.15Zm.08-27.28V62.73l5.29-3.06V32.61Z"/></g></g><g id="Axonometric_Cube-4" data-name="Axonometric Cube"><g id="Cube_face_-_top-4" data-name="Cube face - top"><polygon class="cls-2" points="46.76 43 41.31 39.86 46.76 36.71 52.21 39.86 46.76 43"/><path class="cls-2" d="M46.76,43.08h0l-5.45-3.15a.06.06,0,0,1,0-.06.09.09,0,0,1,0-.07l5.45-3.14a.06.06,0,0,1,.08,0l5.44,3.14a.08.08,0,0,1,0,.07.05.05,0,0,1,0,.06L46.8,43.07Zm-5.29-3.22,5.29,3,5.29-3L46.76,36.8Z"/></g><g id="Cube_face_-_left-4" data-name="Cube face - left"><polygon class="cls-7" points="46.76 66 41.31 62.86 41.31 39.86 46.76 43 46.76 66"/><path class="cls-2" d="M46.76,66.08h0l-5.45-3.14a.09.09,0,0,1,0-.07v-23a.09.09,0,0,1,0-.07h.08l5.45,3.15a.08.08,0,0,1,0,.06V66a.08.08,0,0,1,0,.07Zm-5.37-3.26,5.29,3.05V43.05L41.39,40Z"/></g><g id="Cube_face_-_right-4" data-name="Cube face - right"><polygon class="cls-11" points="52.21 62.86 46.76 66 46.76 43 52.21 39.86 52.21 62.86"/><path class="cls-2" d="M46.76,66.08h0a.08.08,0,0,1,0-.07V43a.08.08,0,0,1,0-.06l5.45-3.15h.07a.08.08,0,0,1,0,.07v23a.08.08,0,0,1,0,.07L46.8,66.07Zm.08-23V65.87l5.29-3.05V40Z"/></g></g><g id="Axonometric_Cube-5" data-name="Axonometric Cube"><g id="Cube_face_-_top-5" data-name="Cube face - top"><polygon class="cls-2" points="35.87 40.76 30.42 37.62 35.87 34.48 41.31 37.62 35.87 40.76"/><path class="cls-2" d="M35.87,40.84h0l-5.45-3.15a.07.07,0,0,1,0-.06.1.1,0,0,1,0-.07l5.45-3.14h.07l5.45,3.14a.1.1,0,0,1,0,.07.07.07,0,0,1,0,.06L35.9,40.83Zm-5.3-3.22,5.3,3.06,5.29-3.06-5.29-3.06Z"/></g><g id="Cube_face_-_left-5" data-name="Cube face - left"><polygon class="cls-7" points="35.87 66 30.42 62.86 30.42 37.62 35.87 40.76 35.87 66"/><path class="cls-2" d="M35.87,66.08h0l-5.45-3.14a.1.1,0,0,1,0-.07V37.62a.1.1,0,0,1,0-.07h.08L35.9,40.7a.06.06,0,0,1,0,.06V66a.07.07,0,0,1,0,.07ZM30.5,62.82l5.29,3.05V40.81L30.5,37.75Z"/></g><g id="Cube_face_-_right-5" data-name="Cube face - right"><polygon class="cls-12" points="41.31 62.86 35.87 66 35.87 40.76 41.31 37.62 41.31 62.86"/><path class="cls-2" d="M35.87,66.08h0a.07.07,0,0,1,0-.07V40.76a.06.06,0,0,1,0-.06l5.44-3.15h.08a.1.1,0,0,1,0,.07V62.86a.1.1,0,0,1,0,.07L35.9,66.07Zm.07-25.27V65.87l5.3-3.05V37.75Z"/></g></g><g id="Axonometric_Cube-6" data-name="Axonometric Cube"><g id="Cube_face_-_top-6" data-name="Cube face - top"><polygon class="cls-2" points="41.31 48.4 35.87 45.26 41.31 42.11 46.76 45.26 41.31 48.4"/><path class="cls-2" d="M41.31,48.48h0l-5.44-3.15a.06.06,0,0,1,0-.06.08.08,0,0,1,0-.07l5.44-3.14a.06.06,0,0,1,.08,0l5.45,3.14a.1.1,0,0,1,0,.07.08.08,0,0,1,0,.06l-5.45,3.15ZM36,45.26l5.29,3.05,5.3-3.05-5.3-3.06Z"/></g><g id="Cube_face_-_left-6" data-name="Cube face - left"><polygon class="cls-7" points="41.31 69.15 35.87 66 35.87 45.26 41.31 48.4 41.31 69.15"/><path class="cls-2" d="M41.31,69.22h0l-5.44-3.14a.07.07,0,0,1,0-.07V45.26a.08.08,0,0,1,0-.07h.07l5.45,3.15a.07.07,0,0,1,0,.06V69.15a.07.07,0,0,1,0,.06ZM35.94,66,41.24,69V48.45l-5.3-3.06Z"/></g><g id="Cube_face_-_right-6" data-name="Cube face - right"><polygon class="cls-13" points="46.76 66 41.31 69.15 41.31 48.4 46.76 45.26 46.76 66"/><path class="cls-2" d="M41.31,69.22h0a.06.06,0,0,1,0-.06V48.4a.06.06,0,0,1,0-.06l5.45-3.15h.08a.1.1,0,0,1,0,.07V66a.08.08,0,0,1,0,.07l-5.45,3.14Zm.08-20.77V69L46.68,66V45.39Z"/></g></g><g id="Axonometric_Cube-7" data-name="Axonometric Cube"><g id="Cube_face_-_top-7" data-name="Cube face - top"><polygon class="cls-2" points="30.42 47.05 24.97 43.91 30.42 40.76 35.87 43.91 30.42 47.05"/><path class="cls-2" d="M30.42,47.13h0L24.94,44a.05.05,0,0,1,0-.06.08.08,0,0,1,0-.07l5.44-3.14a.06.06,0,0,1,.08,0l5.44,3.14a.08.08,0,0,1,0,.07.05.05,0,0,1,0,.06l-5.44,3.15Zm-5.29-3.22L30.42,47l5.29-3.05-5.29-3.06Z"/></g><g id="Cube_face_-_left-7" data-name="Cube face - left"><polygon class="cls-7" points="30.42 69.15 24.97 66 24.97 43.91 30.42 47.05 30.42 69.15"/><path class="cls-2" d="M30.42,69.22h0l-5.44-3.14a.07.07,0,0,1,0-.07V43.91a.08.08,0,0,1,0-.07.09.09,0,0,1,.07,0L30.46,47a.08.08,0,0,1,0,.06v22.1a.07.07,0,0,1,0,.06ZM25.05,66,30.34,69V47.1L25.05,44Z"/></g><g id="Cube_face_-_right-7" data-name="Cube face - right"><polygon class="cls-14" points="35.87 66 30.42 69.15 30.42 47.05 35.87 43.91 35.87 66"/><path class="cls-2" d="M30.42,69.22h0a.07.07,0,0,1,0-.06V47.05a.08.08,0,0,1,0-.06l5.45-3.15a.09.09,0,0,1,.07,0,.08.08,0,0,1,0,.07V66a.07.07,0,0,1,0,.07l-5.44,3.14ZM30.5,47.1V69L35.79,66V44Z"/></g></g><g id="Axonometric_Cube-8" data-name="Axonometric Cube"><g id="Cube_face_-_top-8" data-name="Cube face - top"><polygon class="cls-2" points="35.87 61.15 30.42 58 35.87 54.86 41.31 58 35.87 61.15"/><path class="cls-2" d="M35.87,61.22h0l-5.45-3.14a.1.1,0,0,1,0-.07.07.07,0,0,1,0-.06l5.45-3.15h.07l5.45,3.15a.07.07,0,0,1,0,.06.1.1,0,0,1,0,.07L35.9,61.21ZM30.57,58l5.3,3.06L41.16,58l-5.29-3.06Z"/></g><g id="Cube_face_-_left-8" data-name="Cube face - left"><polygon class="cls-15" points="35.87 72.29 34.1 71.28 30.42 69.15 30.42 58 35.87 61.15 35.87 72.29"/><path class="cls-2" d="M35.87,72.37h0l-5.45-3.15a.07.07,0,0,1,0-.06V58a.07.07,0,0,1,0-.06.06.06,0,0,1,.08,0l5.44,3.14a.07.07,0,0,1,0,.07V72.29a.07.07,0,0,1,0,.07ZM30.5,69.1l5.29,3.06v-11L30.5,58.13Z"/></g><g id="Cube_face_-_right-8" data-name="Cube face - right"><polygon class="cls-16" points="41.31 69.15 35.87 72.29 35.87 61.15 41.31 58 41.31 69.15"/><path class="cls-2" d="M35.87,72.37h0a.07.07,0,0,1,0-.07V61.15a.07.07,0,0,1,0-.07l5.44-3.14a.06.06,0,0,1,.08,0,.07.07,0,0,1,0,.06V69.15a.07.07,0,0,1,0,.06L35.9,72.36Zm.07-11.18v11l5.3-3.06v-11Z"/></g></g><g id="Axonometric_Cube-9" data-name="Axonometric Cube"><g id="Cube_face_-_top-9" data-name="Cube face - top"><polygon class="cls-2" points="24.97 53.88 19.53 50.74 24.97 47.6 30.42 50.74 24.97 53.88"/><path class="cls-2" d="M25,54h0l-5.45-3.14a.1.1,0,0,1,0-.07.07.07,0,0,1,0-.06l5.45-3.15H25l5.45,3.15a.07.07,0,0,1,0,.06.1.1,0,0,1,0,.07L25,54Zm-5.29-3.22L25,53.8l5.3-3.06L25,47.68Z"/></g><g id="Cube_face_-_left-9" data-name="Cube face - left"><polygon class="cls-7" points="24.97 72.29 19.53 69.15 19.53 50.74 24.97 53.88 24.97 72.29"/><path class="cls-2" d="M25,72.37h0l-5.45-3.15a.07.07,0,0,1,0-.06V50.74a.07.07,0,0,1,0-.06,0,0,0,0,1,.07,0L25,53.82a.08.08,0,0,1,0,.07v18.4a.08.08,0,0,1,0,.07ZM19.6,69.1l5.3,3.06V53.93l-5.3-3.06Z"/></g><g id="Cube_face_-_right-9" data-name="Cube face - right"><polygon class="cls-17" points="30.42 69.15 24.97 72.29 24.97 53.88 30.42 50.74 30.42 69.15"/><path class="cls-2" d="M25,72.37h0a.07.07,0,0,1,0-.07V53.89a.07.07,0,0,1,0-.07l5.44-3.14a.06.06,0,0,1,.08,0,.07.07,0,0,1,0,.06V69.15a.07.07,0,0,1,0,.06L25,72.36Zm.08-18.44V72.16l5.29-3.06V50.87Z"/></g></g><g id="Axonometric_Cube-10" data-name="Axonometric Cube"><g id="Cube_face_-_top-10" data-name="Cube face - top"><polygon class="cls-2" points="30.42 59.67 24.97 56.53 30.42 53.38 35.87 56.53 30.42 59.67"/><path class="cls-2" d="M30.42,59.75h0l-5.44-3.15a.05.05,0,0,1,0-.06.08.08,0,0,1,0-.07l5.44-3.14a.06.06,0,0,1,.08,0l5.44,3.14a.08.08,0,0,1,0,.07.05.05,0,0,1,0,.06l-5.44,3.15Zm-5.29-3.22,5.29,3,5.29-3-5.29-3.06Z"/></g><g id="Cube_face_-_left-10" data-name="Cube face - left"><polygon class="cls-7" points="30.42 75.44 24.97 72.29 24.97 56.53 30.42 59.67 30.42 75.44"/><path class="cls-2" d="M30.42,75.51h0l-5.44-3.14a.07.07,0,0,1,0-.07V56.53a.08.08,0,0,1,0-.07H25l5.45,3.15a.08.08,0,0,1,0,.06V75.44a.07.07,0,0,1,0,.06Zm-5.37-3.26,5.29,3.06V59.72l-5.29-3.06Z"/></g><g id="Cube_face_-_right-10" data-name="Cube face - right"><polygon class="cls-18" points="35.87 72.29 30.42 75.44 30.42 59.67 35.87 56.53 35.87 72.29"/><path class="cls-2" d="M30.42,75.51h0a.07.07,0,0,1,0-.06V59.67a.08.08,0,0,1,0-.06l5.45-3.15h.07a.08.08,0,0,1,0,.07V72.29a.07.07,0,0,1,0,.07L30.46,75.5Zm.08-15.79V75.31l5.29-3.06V56.66Z"/></g></g><g id="Axonometric_Cube-11" data-name="Axonometric Cube"><g id="Cube_face_-_top-11" data-name="Cube face - top"><polygon class="cls-2" points="19.53 64.22 14.08 61.07 19.53 57.93 24.97 61.07 19.53 64.22"/><path class="cls-2" d="M19.53,64.29h0L14,61.14a.08.08,0,0,1,0-.07A.08.08,0,0,1,14,61l5.45-3.15h.07L25,61a.08.08,0,0,1,0,.06.08.08,0,0,1,0,.07l-5.45,3.14Zm-5.3-3.22,5.3,3.06,5.29-3.06-5.29-3Z"/></g><g id="Cube_face_-_left-11" data-name="Cube face - left"><polygon class="cls-7" points="19.53 75.44 14.08 72.29 14.08 61.07 19.53 64.22 19.53 75.44"/><path class="cls-2" d="M19.53,75.51h0L14,72.36a.08.08,0,0,1,0-.07V61.07A.08.08,0,0,1,14,61a.06.06,0,0,1,.08,0l5.44,3.14a.08.08,0,0,1,0,.07V75.44a.05.05,0,0,1,0,.06Zm-5.37-3.26,5.29,3.06v-11L14.16,61.2Z"/></g><g id="Cube_face_-_right-11" data-name="Cube face - right"><polygon class="cls-19" points="24.97 72.29 19.53 75.44 19.53 64.22 24.97 61.07 24.97 72.29"/><path class="cls-2" d="M19.53,75.51h0a.07.07,0,0,1,0-.06V64.22a.1.1,0,0,1,0-.07L24.94,61A0,0,0,0,1,25,61a.08.08,0,0,1,0,.06V72.29a.08.08,0,0,1,0,.07L19.56,75.5Zm.07-11.25v11l5.3-3.06v-11Z"/></g></g><g id="Axonometric_Cube-12" data-name="Axonometric Cube"><g id="Cube_face_-_top-12" data-name="Cube face - top"><polygon class="cls-2" points="24.97 70.51 19.53 67.36 24.97 64.22 30.42 67.36 24.97 70.51"/><path class="cls-2" d="M25,70.58h0l-5.45-3.14a.1.1,0,0,1,0-.07.07.07,0,0,1,0-.06l5.45-3.15a.09.09,0,0,1,.07,0l5.45,3.15a.07.07,0,0,1,0,.06.1.1,0,0,1,0,.07L25,70.57Zm-5.29-3.22L25,70.42l5.3-3.06-5.3-3Z"/></g><g id="Cube_face_-_left-12" data-name="Cube face - left"><polygon class="cls-7" points="24.97 78.58 19.53 75.44 19.53 67.36 24.97 70.51 24.97 78.58"/><path class="cls-2" d="M25,78.66h0L19.49,75.5a.07.07,0,0,1,0-.06V67.36a.07.07,0,0,1,0-.06,0,0,0,0,1,.07,0L25,70.44a.08.08,0,0,1,0,.07v8.07a.1.1,0,0,1,0,.07ZM19.6,75.39l5.3,3.06v-7.9l-5.3-3.06Z"/></g><g id="Cube_face_-_right-12" data-name="Cube face - right"><polygon class="cls-20" points="30.42 75.44 24.97 78.58 24.97 70.51 30.42 67.36 30.42 75.44"/><path class="cls-2" d="M25,78.66h0a.08.08,0,0,1,0-.07V70.51a.07.07,0,0,1,0-.07l5.44-3.14a.06.06,0,0,1,.08,0,.07.07,0,0,1,0,.06v8.08a.07.07,0,0,1,0,.06L25,78.65Zm.08-8.11v7.9l5.29-3.06v-7.9Z"/></g></g><g id="Axonometric_Cube-13" data-name="Axonometric Cube"><g id="Cube_face_-_top-13" data-name="Cube face - top"><polygon class="cls-2" points="14.08 73.65 8.63 70.51 14.08 67.36 19.53 70.51 14.08 73.65"/><path class="cls-2" d="M14.08,73.73h0L8.6,70.57a.06.06,0,0,1,0-.06.07.07,0,0,1,0-.07L14,67.3a.06.06,0,0,1,.08,0l5.44,3.14a.07.07,0,0,1,0,.07.06.06,0,0,1,0,.06l-5.44,3.15ZM8.79,70.51l5.29,3,5.29-3-5.29-3.06Z"/></g><g id="Cube_face_-_left-13" data-name="Cube face - left"><polygon class="cls-7" points="14.08 78.58 8.63 75.44 8.63 70.51 14.08 73.65 14.08 78.58"/><path class="cls-2" d="M14.08,78.66h0L8.6,75.5a.05.05,0,0,1,0-.06V70.51a.07.07,0,0,1,0-.07h.07l5.45,3.15a.07.07,0,0,1,0,.06v4.93a.1.1,0,0,1,0,.07ZM8.71,75.39,14,78.45V73.69l-5.29-3Z"/></g><g id="Cube_face_-_right-13" data-name="Cube face - right"><polygon class="cls-21" points="19.53 75.44 14.08 78.58 14.08 73.65 19.53 70.51 19.53 75.44"/><path class="cls-2" d="M14.08,78.66h0a.1.1,0,0,1,0-.07V73.65a.07.07,0,0,1,0-.06l5.45-3.15h.07a.07.07,0,0,1,0,.07v4.93a.05.05,0,0,1,0,.06l-5.44,3.15Zm.08-5v4.76l5.29-3.06V70.64Z"/></g></g><g id="Axonometric_Cube-14" data-name="Axonometric Cube"><g id="Cube_face_-_top-14" data-name="Cube face - top"><polygon class="cls-2" points="19.53 80.22 14.08 77.08 19.53 73.94 24.97 77.08 19.53 80.22"/><path class="cls-2" d="M19.53,80.3h0L14,77.15A.08.08,0,0,1,14,77l5.45-3.14a.09.09,0,0,1,.07,0L25,77a.08.08,0,0,1,0,.14l-5.45,3.14Zm-5.3-3.22,5.3,3.06,5.29-3.06L19.53,74Z"/></g><g id="Cube_face_-_left-14" data-name="Cube face - left"><polygon class="cls-7" points="19.53 81.73 14.08 78.58 14.08 77.08 19.53 80.22 19.53 81.73"/><path class="cls-2" d="M19.53,81.8h0L14,78.65a.1.1,0,0,1,0-.07v-1.5A.1.1,0,0,1,14,77a.11.11,0,0,1,.08,0l5.44,3.15a.06.06,0,0,1,0,.06v1.51a.06.06,0,0,1,0,.06Zm-5.37-3.26,5.29,3.06V80.27l-5.29-3.06Z"/></g><g id="Cube_face_-_right-14" data-name="Cube face - right"><polygon class="cls-22" points="24.97 78.58 19.53 81.73 19.53 80.22 24.97 77.08 24.97 78.58"/><path class="cls-2" d="M19.53,81.8h0a.08.08,0,0,1,0-.06V80.22a.08.08,0,0,1,0-.06L24.94,77A.09.09,0,0,1,25,77a.1.1,0,0,1,0,.07v1.5a.1.1,0,0,1,0,.07l-5.45,3.14Zm.07-1.53V81.6l5.3-3.06V77.21Z"/></g></g><polygon class="cls-23" points="55.55 40.24 60.09 37.62 60.09 61.64 55.55 64.26 55.55 40.24"/><path class="cls-2" d="M55.55,64.34h0a.1.1,0,0,1,0-.07v-24a.1.1,0,0,1,0-.07l4.54-2.62h.08a.09.09,0,0,1,0,.07v24a.09.09,0,0,1,0,.07l-4.54,2.62Zm.08-24.06V64.13L60,61.6V37.75Z"/><polygon class="cls-24" points="50.1 49.26 54.64 46.64 54.64 64.78 50.1 67.4 50.1 49.26"/><path class="cls-2" d="M50.1,67.48h0a.07.07,0,0,1,0-.07V49.26a.08.08,0,0,1,0-.07l4.53-2.62h.08a.08.08,0,0,1,0,.07V64.78a.08.08,0,0,1,0,.07l-4.54,2.62Zm.08-18.18v18l4.38-2.53v-18Z"/><polygon class="cls-25" points="44.66 56.17 49.2 53.55 49.2 67.93 44.66 70.55 44.66 56.17"/><path class="cls-2" d="M44.66,70.62h0a.07.07,0,0,1,0-.06V56.17a.08.08,0,0,1,0-.07l4.54-2.62h.07a.07.07,0,0,1,0,.07V67.93a.05.05,0,0,1,0,.06l-4.54,2.62Zm.07-14.41V70.42l4.39-2.53V53.68Z"/><polygon class="cls-26" points="39.21 66.01 43.75 63.39 43.75 71.07 39.21 73.69 39.21 66.01"/><path class="cls-2" d="M39.21,73.77h0a.08.08,0,0,1,0-.07V66a.1.1,0,0,1,0-.07l4.54-2.62h.08a.09.09,0,0,1,0,.07v7.68a.08.08,0,0,1,0,.07l-4.54,2.62Zm.08-7.72v7.51L43.67,71V63.52Z"/><polygon class="cls-27" points="33.77 67.1 38.3 64.48 38.3 74.22 33.77 76.84 33.77 67.1"/><path class="cls-2" d="M33.76,76.91h0a.06.06,0,0,1,0-.06V67.1a.05.05,0,0,1,0-.06l4.53-2.63h.08a.1.1,0,0,1,0,.07v9.74a.07.07,0,0,1,0,.06L33.8,76.9Zm.08-9.77v9.57l4.39-2.54V64.61Z"/><polygon class="cls-28" points="28.32 75.37 32.85 72.75 32.85 77.36 28.32 79.98 28.32 75.37"/><path class="cls-2" d="M28.32,80.06h0a.1.1,0,0,1,0-.07V75.37a.1.1,0,0,1,0-.07l4.54-2.62a.09.09,0,0,1,.07,0,.08.08,0,0,1,0,.07v4.61a.08.08,0,0,1,0,.07l-4.53,2.62Zm.07-4.65v4.44l4.39-2.53V72.88Z"/><polygon class="cls-29" points="22.87 82.16 27.41 79.54 27.41 80.51 22.87 83.13 22.87 82.16"/><path class="cls-2" d="M22.87,83.2h0a.07.07,0,0,1,0-.06v-1a.08.08,0,0,1,0-.07l4.54-2.62a.11.11,0,0,1,.08,0,.08.08,0,0,1,0,.07v1a.07.07,0,0,1,0,.06l-4.54,2.62Zm.08-1V83l4.38-2.54v-.79Z"/></g></g></g></svg>