<svg xmlns="http://www.w3.org/2000/svg" xmlns:xlink="http://www.w3.org/1999/xlink" viewBox="0 0 45.08 62.77"><defs><style>.cls-1{fill:url(#linear-gradient);}</style><linearGradient id="linear-gradient" y1="31.39" x2="45.08" y2="31.39" gradientUnits="userSpaceOnUse"><stop offset="0" stop-color="#4591e8"/><stop offset="0.6" stop-color="#213167"/><stop offset="1" stop-color="#202c5f"/></linearGradient></defs><g id="Layer_2" data-name="Layer 2"><g id="Layer_1-2" data-name="Layer 1"><path class="cls-1" d="M45.08,7.5V6.25c0-2.31-4.34-4.26-10.7-5.33A76.75,76.75,0,0,0,10.7.92C4.34,2,0,3.94,0,6.25V7.5A2.79,2.79,0,0,0,1.34,9.62v9.86c-1.86,1.8-1.67,3.8,0,5.33V36.7c-1.86,1.8-1.67,3.8,0,5.33V53.14A3.06,3.06,0,0,0,0,55.29V56.6c.07,2.29,4.7,4.48,12.61,5.55a78.64,78.64,0,0,0,19.81,0C40.36,61.08,45,58.89,45.06,56.6V55.29a3.06,3.06,0,0,0-1.32-2.15V42c1.67-1.53,1.86-3.53,0-5.33V24.81c1.67-1.53,1.86-3.53,0-5.33V9.62A2.79,2.79,0,0,0,45.08,7.5ZM4,55.33V43.67A26.68,26.68,0,0,0,9.25,45.3v1a2.65,2.65,0,0,0,1.36,2.32v8.88A20.62,20.62,0,0,1,4,55.33Zm8.06-8.11h-.14a.89.89,0,0,1-.89-.89V25.05a.88.88,0,0,1,.84-.88,93,93,0,0,0,10.68.62,93,93,0,0,0,10.68-.62.89.89,0,0,1,.84.88V46.32a.89.89,0,0,1-.89.89h-.1a90.3,90.3,0,0,1-10.53.61A92,92,0,0,1,12.05,47.22Zm6.51-24.29c-1.32-.06-2.65-.15-4-.27V13.38c1.29.14,2.62.24,4,.31Zm-7.95-.2a2.67,2.67,0,0,0-1.36,2.32v.41A23.34,23.34,0,0,1,4,23.72V11.06a33.55,33.55,0,0,0,6.62,1.78ZM9.25,28.08v14.6A23.34,23.34,0,0,1,4,40.94V26.45A26.68,26.68,0,0,0,9.25,28.08Zm5.34,30V49.25c1.32.12,2.65.2,4,.26v8.91C17.21,58.35,15.87,58.24,14.59,58.1Zm26.5-2.77a11.17,11.17,0,0,1-1.47.74V44.26c.52-.19,1-.38,1.47-.59Zm0-14.39c-.46.23-1,.44-1.47.64V27c.52-.19,1-.38,1.47-.59Zm0-17.22c-.46.23-1,.44-1.47.64V11.59c.52-.17,1-.34,1.47-.53ZM42.52,6.5c-.76.65-3,1.86-7.83,2.76a73.41,73.41,0,0,1-24.3,0C5.51,8.36,3.32,7.15,2.56,6.5a.27.27,0,0,1,0-.4c1.6-1.46,6.11-2.49,8.11-2.85a72,72,0,0,1,23.76,0c2,.36,6.51,1.39,8.11,2.85A.27.27,0,0,1,42.52,6.5ZM14.1,6.3c0,.9-1.82,1.62-4.06,1.62S6,7.2,6,6.3,7.8,4.67,10,4.67,14.1,5.4,14.1,6.3Zm8.57,39c-3.38,0-5.94-2.48-5.94-6.29,0-4.49,3.31-8.69,6.5-11.83,1.64,7.54,5.11,7.92,5.12,12.7A5.63,5.63,0,0,1,22.67,45.28Z"/></g></g></svg>