<svg id="Layer_1" data-name="Layer 1" xmlns="http://www.w3.org/2000/svg" xmlns:xlink="http://www.w3.org/1999/xlink" viewBox="0 0 886.32 190.63"><defs><linearGradient id="linear-gradient" x1="30.42" y1="404.77" x2="220.48" y2="404.77" gradientUnits="userSpaceOnUse"><stop offset="0" stop-color="#4591e8"/><stop offset="0.69" stop-color="#213167"/><stop offset="1" stop-color="#202c5f"/></linearGradient><linearGradient id="linear-gradient-2" x1="122.34" y1="417.3" x2="122.34" y2="346.12" xlink:href="#linear-gradient"/><linearGradient id="linear-gradient-3" x1="125.86" y1="462.72" x2="125.86" y2="383.49" xlink:href="#linear-gradient"/><linearGradient id="linear-gradient-4" x1="100.05" y1="486.2" x2="169.65" y2="365.65" xlink:href="#linear-gradient"/><linearGradient id="linear-gradient-5" x1="255.58" y1="428.86" x2="325.45" y2="428.86" gradientUnits="userSpaceOnUse"><stop offset="0" stop-color="#4592e9"/><stop offset="0.69" stop-color="#202c5f"/><stop offset="1" stop-color="#202c5f"/></linearGradient><linearGradient id="linear-gradient-6" x1="731.23" y1="425.57" x2="731.23" y2="458.49" xlink:href="#linear-gradient-5"/></defs><circle cx="94.72" cy="96.62" r="93.2" style="fill:#fff"/><path d="M66.81,329.58A95.41,95.41,0,1,1,39,445c-.47-1.38-1.47-2.66-1.3-4.17a23.7,23.7,0,0,1,3.3-2l1,2.82c7.42-4.56,14.77-9.24,22.15-13.87a65,65,0,0,0,22.22,29.47A64.21,64.21,0,0,0,186.8,420.71a66.39,66.39,0,0,0,.33-29.32c8.45-3.7,16.83-7.52,25.26-11.28a120.36,120.36,0,0,0-4.65-12.78c-.72,1.19-1.42,2.42-2.17,3.61a48.46,48.46,0,0,1-2.13-4.63c1.06.23,3.16.66,4.21.87a90.77,90.77,0,0,0-164.87-.32c-10.33,22.07-10.71,49.31-1.77,72-1.2.74-1.31,4.38-3,3.74-6.78-16.68-9.5-38-6.19-55.67A95.27,95.27,0,0,1,66.81,329.58Z" transform="translate(-30.42 -309.45)" style="fill:url(#linear-gradient)"/><path d="M97.92,352.57a58.36,58.36,0,0,1,80.45,29.22L123,408.45l-22.13-16.79c-11.06,8.54-22.1,17.12-33.17,25.64a58.4,58.4,0,0,1,30.24-64.73Z" transform="translate(-30.42 -309.45)" style="fill:url(#linear-gradient-2)"/><path d="M184,374.68a22.1,22.1,0,0,1,18.7-8.49,20.94,20.94,0,0,0,2.63,5.45,21.46,21.46,0,0,1-18.78,9.21c-1.38,1.84-2.23,4.19-4.06,5.62-1.79-3.38-3.38-6.86-5.12-10.27,2.29,0,4.57.08,6.86.15C184.19,375.94,184.07,375.1,184,374.68Zm10.34-4.4a3,3,0,1,0,4.09,3.29A3,3,0,0,0,194.36,370.28Z" transform="translate(-30.42 -309.45)" style="fill:#1f1b49"/><path d="M178.33,369.56a43.14,43.14,0,0,1,6-2.66c1.5.54,2.33,2,3.49,3.06-1.51,1.28-2.82,2.78-4.36,4C180.56,374.78,179.35,371.62,178.33,369.56Z" transform="translate(-30.42 -309.45)" style="fill:#1f1b49"/><path d="M199,380.41c2.91-2.22,5.54-4.76,8.36-7.05A17.29,17.29,0,0,1,199,380.41Z" transform="translate(-30.42 -309.45)" style="fill:#1f1b49"/><path d="M187,382.07c1.87-1,4.2-.6,6.24-1.11-.06,1.52.76,3.19.06,4.61-1.73,1.34-3.83,2.06-5.76,3.06C186.63,386.63,184.94,384,187,382.07Z" transform="translate(-30.42 -309.45)" style="fill:#1f1b49"/><path d="M118.39,420.45q30.36-18.46,60.67-37c7.26,18.75,4.07,41.21-8.62,56.88-.11-15.75,0-31.5-.05-47.25-4.32,2.44-8.61,4.94-12.94,7.36,0,17.39,0,34.77,0,52.16A64.4,64.4,0,0,1,143,459.81c-.08-16.8,0-33.6,0-50.39l-13,7.4q0,22.85,0,45.69a66.24,66.24,0,0,1-14.42-.43q0-19.47,0-38.94-6.45-5.76-13-11.47c0,15.61,0,31.22,0,46.83A63.19,63.19,0,0,1,88.2,450q0-17.89,0-35.78-6.48,3.7-13,7.41c0,4.57,0,9.14-.06,13.71a58.2,58.2,0,0,1-6.36-13.75q15.23-9.36,30.48-18.7Q108.87,411.66,118.39,420.45Z" transform="translate(-30.42 -309.45)" style="fill:url(#linear-gradient-3)"/><circle cx="165.03" cy="63.58" r="2.12" style="fill:#1f1b49"/><path d="M51.28,440.81l3.42-1.2a78.7,78.7,0,0,0,150-35.64,82,82,0,0,0-2.09-15.83l3.74-1.3a82.51,82.51,0,0,1-155.06,54Z" transform="translate(-30.42 -309.45)" style="fill:url(#linear-gradient-4)"/><path d="M54.64,426.89a7.16,7.16,0,0,1-5.39-.58,6,6,0,0,1-2.82-4,6.27,6.27,0,0,1,.12-3.39,5.72,5.72,0,0,1,1.88-2.72,7.86,7.86,0,0,1,3.27-1.53,7.72,7.72,0,0,1,3.67,0,5.49,5.49,0,0,1,2.84,1.71,6.46,6.46,0,0,1,1.5,2.93,6.25,6.25,0,0,1-.13,3.44,5.74,5.74,0,0,1-1.9,2.7A7.49,7.49,0,0,1,54.64,426.89Zm-.37-1.76a5.23,5.23,0,0,0,3.37-2.08,4.47,4.47,0,0,0-1.44-6.28,5.64,5.64,0,0,0-4.11-.37,6.73,6.73,0,0,0-2.61,1.15,4.15,4.15,0,0,0-1.46,2,4.26,4.26,0,0,0-.13,2.43,4.46,4.46,0,0,0,2,2.82Q51.37,425.79,54.27,425.13Z" transform="translate(-30.42 -309.45)" style="fill:#1f1b49"/><path d="M61.37,405.51l-13.17-.59.06-1.47,1.24.06a3.72,3.72,0,0,1-1-1.23,3.21,3.21,0,0,1-.29-1.6,3.75,3.75,0,0,1,2.56-3.45,6.37,6.37,0,0,1,2.53-.37,6.6,6.6,0,0,1,2.61.64,4,4,0,0,1,1.72,1.61,3.88,3.88,0,0,1,.53,2.13,3,3,0,0,1-.4,1.43,3.34,3.34,0,0,1-.91,1l4.64.2Zm-8.29-1.83a4.17,4.17,0,0,0,2.75-.63,2.28,2.28,0,0,0,1-1.76,2.34,2.34,0,0,0-.83-1.88,4.32,4.32,0,0,0-2.79-.9,4.22,4.22,0,0,0-2.75.63,2.25,2.25,0,0,0-1,1.75,2.33,2.33,0,0,0,.88,1.87A4.34,4.34,0,0,0,53.08,403.68Z" transform="translate(-30.42 -309.45)" style="fill:#1f1b49"/><path d="M54.68,388.6a4.9,4.9,0,0,1-3.36-2.51,4.41,4.41,0,0,1-.18-3.17,4.31,4.31,0,0,1,2.13-2.73A4.92,4.92,0,0,1,57,380a6.33,6.33,0,0,1,2.63,1.34,3.91,3.91,0,0,1,1.12,2,4.66,4.66,0,0,1-.08,2.37,4.29,4.29,0,0,1-2.14,2.75A5.12,5.12,0,0,1,54.68,388.6Zm.46-1.59A4.09,4.09,0,0,0,58,387a2.67,2.67,0,0,0,1.11-3.86,4.15,4.15,0,0,0-2.46-1.54,3.89,3.89,0,0,0-2.79,0,2.56,2.56,0,0,0-1.44,1.66,2.6,2.6,0,0,0,.31,2.19A4.08,4.08,0,0,0,55.14,387Z" transform="translate(-30.42 -309.45)" style="fill:#1f1b49"/><path d="M65.18,373.83,57.87,370l-.67,1.26-1.11-.58.67-1.26-.9-.48a4.25,4.25,0,0,1-1.18-.82,2.05,2.05,0,0,1-.52-1.2,3,3,0,0,1,.43-1.64,7.54,7.54,0,0,1,.85-1.26l1.13.88a4.81,4.81,0,0,0-.53.8,1.4,1.4,0,0,0-.21,1.06,1.7,1.7,0,0,0,.9.82l.78.42.87-1.65,1.11.59-.87,1.64,7.31,3.88Z" transform="translate(-30.42 -309.45)" style="fill:#1f1b49"/><path d="M66.66,362.09a4.94,4.94,0,0,1-2.09-3.64,4.45,4.45,0,0,1,1.1-3,4.32,4.32,0,0,1,3-1.66,4.94,4.94,0,0,1,3.54,1.31,6.31,6.31,0,0,1,1.88,2.28,3.86,3.86,0,0,1,.23,2.28,4.56,4.56,0,0,1-1,2.14,4.31,4.31,0,0,1-3.06,1.68A5.1,5.1,0,0,1,66.66,362.09Zm1.06-1.28a4,4,0,0,0,2.62,1.13,2.53,2.53,0,0,0,2-1,2.56,2.56,0,0,0,.57-2.13,4.09,4.09,0,0,0-1.64-2.39,3.91,3.91,0,0,0-2.57-1.1,2.59,2.59,0,0,0-2,1,2.57,2.57,0,0,0-.58,2.13A4,4,0,0,0,67.72,360.81Z" transform="translate(-30.42 -309.45)" style="fill:#1f1b49"/><path d="M81.82,353l-5.92-7.47,1.13-.91.9,1.14a3.81,3.81,0,0,1,0-1.69,1.8,1.8,0,0,1,.61-.9,3.14,3.14,0,0,1,1.62-.62l.5,1.52a2.33,2.33,0,0,0-1.15.46,1.52,1.52,0,0,0-.54.84A1.73,1.73,0,0,0,79,346.4,6.44,6.44,0,0,0,80,348L83.09,352Z" transform="translate(-30.42 -309.45)" style="fill:#1f1b49"/><path d="M96.18,340.32l1.59-.55a4.1,4.1,0,0,1-.31,2.68,4.94,4.94,0,0,1-5.63,2.26,5.07,5.07,0,0,1-2.7-2.7,5.3,5.3,0,0,1-.55-3.89,4.17,4.17,0,0,1,2.29-2.62,4.06,4.06,0,0,1,3.38-.22A5.17,5.17,0,0,1,97,338c.05.09.11.22.19.39l-6.37,3.16a3.6,3.6,0,0,0,1.86,1.76,2.64,2.64,0,0,0,2.16-.14A2.44,2.44,0,0,0,96,342.1,3.1,3.1,0,0,0,96.18,340.32Zm-5.91,0L95,338a3.21,3.21,0,0,0-1.35-1.35,2.49,2.49,0,0,0-2.21.05,2.62,2.62,0,0,0-1.35,1.5A2.93,2.93,0,0,0,90.27,340.34Z" transform="translate(-30.42 -309.45)" style="fill:#1f1b49"/><path d="M105.36,339.92l3.59-7.75-5.67-5.26,2-.42,3,2.82c.63.59,1.08,1.05,1.37,1.37a16.12,16.12,0,0,1,.71-1.68l1.89-3.95,1.85-.39-3.27,7,6.29,5.81-2.11.43L110.87,334l-.75-.75c-.19.53-.32.9-.41,1.1l-2.31,5.16Z" transform="translate(-30.42 -309.45)" style="fill:#1f1b49"/><path d="M124.92,337.29l0-1.84,1.83,0,0,1.84Z" transform="translate(-30.42 -309.45)" style="fill:#1f1b49"/><path d="M142.36,335.92l1.51.53a4.09,4.09,0,0,1-1.84,2.24,3.9,3.9,0,0,1-2.77.37,4.09,4.09,0,0,1-2.81-1.9,5.2,5.2,0,0,1-.41-3.84,6.62,6.62,0,0,1,1.06-2.53,3.52,3.52,0,0,1,1.88-1.38,4.56,4.56,0,0,1,2.35-.1,4,4,0,0,1,2.32,1.29,3.59,3.59,0,0,1,.78,2.45l-1.59-.09a2.56,2.56,0,0,0-.48-1.58,2.11,2.11,0,0,0-1.24-.76,2.57,2.57,0,0,0-2.13.45,4.27,4.27,0,0,0-1.32,2.55,4.33,4.33,0,0,0,.15,2.89,2.42,2.42,0,0,0,1.7,1.25,2.22,2.22,0,0,0,1.67-.25A2.88,2.88,0,0,0,142.36,335.92Z" transform="translate(-30.42 -309.45)" style="fill:#1f1b49"/><path d="M151.56,337.48a5,5,0,0,1,3-2.93,4.49,4.49,0,0,1,3.16.32,4.29,4.29,0,0,1,2.36,2.54,4.86,4.86,0,0,1-.39,3.75,6.34,6.34,0,0,1-1.73,2.39,4,4,0,0,1-2.15.79,4.78,4.78,0,0,1-2.34-.45,4.32,4.32,0,0,1-2.38-2.54A5.15,5.15,0,0,1,151.56,337.48Zm1.51.7a4.11,4.11,0,0,0-.45,2.83,2.58,2.58,0,0,0,1.43,1.68,2.53,2.53,0,0,0,2.2,0,4.12,4.12,0,0,0,1.91-2.18,3.89,3.89,0,0,0,.42-2.77,2.65,2.65,0,0,0-3.62-1.71A4,4,0,0,0,153.07,338.18Z" transform="translate(-30.42 -309.45)" style="fill:#1f1b49"/><path d="M164.2,349.58l6.27-7.18,1.09,1-.88,1a3.49,3.49,0,0,1,1.64-.06,3.34,3.34,0,0,1,1.56.8,3.13,3.13,0,0,1,1,1.47,2.46,2.46,0,0,1-.09,1.56,3.38,3.38,0,0,1,3.31.68,2.87,2.87,0,0,1,1.13,2,3.35,3.35,0,0,1-1,2.33l-4.3,4.92L172.72,357l3.95-4.52a4.73,4.73,0,0,0,.8-1.16,1.35,1.35,0,0,0,0-.89,1.81,1.81,0,0,0-.56-.84,2.27,2.27,0,0,0-1.7-.59,2.94,2.94,0,0,0-1.9,1.17l-3.65,4.18-1.22-1.07,4.08-4.66a2.79,2.79,0,0,0,.77-1.48,1.51,1.51,0,0,0-.62-1.25,2.35,2.35,0,0,0-1.19-.56,2,2,0,0,0-1.32.23,6,6,0,0,0-1.51,1.33l-3.25,3.73Z" transform="translate(-30.42 -309.45)" style="fill:#1f1b49"/><path d="M270.42,399.06a37.41,37.41,0,0,1,33.41-5.92,38,38,0,0,1,21.62,17.25c-4.16-5.95-9.63-11.13-16.43-13.92a35.57,35.57,0,1,0-11.46,68.19,38.28,38.28,0,0,0,15.11-4.45l-.3-.43c2.7-1.06,4.59-3.53,7.24-4.56a38.39,38.39,0,0,1-18,9.95,37.34,37.34,0,0,1-31.17-66.11Z" transform="translate(-30.42 -309.45)" style="fill:url(#linear-gradient-5)"/><path d="M490.34,388.75A19.22,19.22,0,0,1,508,374q9-.11,18,0c0,8.71-7.77,16.43-16.49,16.26-3.68-.3-3.67,3.89-3.59,6.46,5.44.06,10.9,0,16.35,0,.09,8.75-7.65,16.32-16.31,16.44,0,9.67,0,19.34,0,29,0,4.69-1.29,9.82-5.11,12.86-3.07,2.56-7.15,3.17-11,3.56-.1-15.18,0-30.37,0-45.55-3.15,0-6.3,0-9.45,0a17.4,17.4,0,0,1,9.44-14.83C489.91,395,489.67,391.85,490.34,388.75Z" transform="translate(-30.42 -309.45)" style="fill:#fff"/><path d="M286.77,386.21a42.5,42.5,0,1,1-27,15.79A42.6,42.6,0,0,1,286.77,386.21Zm-16.35,12.85a37.33,37.33,0,0,0,31.17,66.11,38.39,38.39,0,0,0,18-9.95,27.24,27.24,0,0,1-5.2,4l-1.74,1a38.28,38.28,0,0,1-15.11,4.45A35.57,35.57,0,1,1,309,396.47c6.8,2.79,12.27,8,16.43,13.92a38,38,0,0,0-21.62-17.25A37.41,37.41,0,0,0,270.42,399.06Zm15.6,1.5a28.64,28.64,0,1,0,19.41,2.2A28.77,28.77,0,0,0,286,400.56Z" transform="translate(-30.42 -309.45)" style="fill:#202c5f"/><path d="M764,385.83h21.82q-22.14,21.9-44.3,43.77c9.62,9.67,19.3,19.28,28.91,29-7.26,0-14.53,0-21.8,0-5.92-6-11.79-12-17.73-17.95-6,6-12.12,11.94-18.15,17.94-6.92,0-13.84-.06-20.76-.12q14.87-15,29.8-29.82c-9.59-9.67-19.26-19.25-28.86-28.9l20.76-.13,18.19,18Q748,401.69,764,385.83Z" transform="translate(-30.42 -309.45)" style="fill:#fff"/><path d="M352.28,398.19c4.1-1.79,8.67-1.44,13-1.46s9-.27,13.42.55a31,31,0,0,1,23.35,40.1c-3.95,12.08-15.95,21.26-28.79,21.1-8.26-.33-15.27-7.87-15.28-16.1,5.34-.08,10.68.14,16-.1,7.54-.44,13.93-7.64,13.43-15.2-.07-7.2-6.28-13.76-13.51-14.07-4.76-.12-9.53-.14-14.29,0a3.32,3.32,0,0,0-3.07,3.66c0,16.23,0,32.46,0,48.69-.07,4.6-1.37,9.63-5.13,12.62-3.08,2.59-7.24,3.16-11.12,3.45,0-21.8,0-43.61,0-65.41C340.23,408.37,345.36,401.19,352.28,398.19Z" transform="translate(-30.42 -309.45)" style="fill:#fff"/><path d="M433.41,397.34a66.71,66.71,0,0,1,17.29-.21,30.94,30.94,0,0,1,25.28,38c-3,12.65-14.81,22.61-27.83,23.29a115.37,115.37,0,0,1-11.91-.09c-11.46-1-21.69-9.33-25.62-20.06a31.85,31.85,0,0,1-1.23-16.79A31.12,31.12,0,0,1,433.41,397.34Zm2.48,16a14.77,14.77,0,0,0-1.84,27.91c4,1.61,8.34,1.05,12.51,1.06,7.5-.1,14.18-6.88,14.1-14.39a14.84,14.84,0,0,0-11.24-14.66A43.85,43.85,0,0,0,435.89,413.36Z" transform="translate(-30.42 -309.45)" style="fill:#fff"/><path d="M546.62,397.33a70,70,0,0,1,16.49-.32,30.93,30.93,0,0,1,25.13,41.19c-4.12,11.44-15.48,19.91-27.69,20.24-7.84.28-16.21.32-23.09-4a30.94,30.94,0,0,1,9.16-57.09Zm2.48,16a14.87,14.87,0,0,0-10.89,12.94c-1,7.89,5.69,15.7,13.62,16,3.68.1,7.44.35,11.08-.4a14.77,14.77,0,0,0-.28-28.61A43.85,43.85,0,0,0,549.1,413.36Z" transform="translate(-30.42 -309.45)" style="fill:#fff"/><path d="M595.71,415.94c-.12-9.81,8.4-19,18.28-19.21,5.68-.15,11.36,0,17-.05A16.9,16.9,0,0,1,620.28,412c-2,.8-4.12.76-6.16,1.21a3.31,3.31,0,0,0-2.17,3.5c-.05,8.8,0,17.6,0,26.39,0,4.26-1.25,8.86-4.63,11.69-3.19,2.79-7.54,3.47-11.61,3.77C595.68,444.36,595.64,430.14,595.71,415.94Z" transform="translate(-30.42 -309.45)" style="fill:#fff"/><path d="M631.49,427.88c-.49-14.44,10.72-28,24.88-30.6,4.43-.79,9-.55,13.43-.51a20.62,20.62,0,0,1,17.53,10.54c3.82,6.84,2.81,16.18-2.84,21.73-6.87,7.13-19.81,9.15-27.37,2a16.32,16.32,0,0,1-5.32-11.78c6.3-.11,12.61.11,18.91-.1a3.09,3.09,0,0,0,2.26-4.69c-.93-1.72-3.09-1.57-4.74-1.57-4,.1-8.31-.46-12.07,1.32a14.74,14.74,0,0,0,4,27.94c5.09.54,10.24-.14,15.34.37,7.55,1.19,13.48,8.3,13.56,15.93-9.57,0-19.15.07-28.71-.05C644.73,457.86,631.16,443.53,631.49,427.88Z" transform="translate(-30.42 -309.45)" style="fill:#fff"/><path d="M796.47,439.67c1.92-6.93,8.7-12.35,16-12.18,4.53,0,9.06,0,13.59.05-.42,3-1.82,6-4.57,7.52-3.79,2.48-8.67,0-12.56,2.15a8.15,8.15,0,0,0-4.15,8.32,8,8,0,0,0,7.69,6.77c3.29.14,7-.55,9.79,1.76,2.36,1.58,3.38,4.34,3.8,7-4.52.09-9,.06-13.56.06a16.78,16.78,0,0,1-14.13-8A17,17,0,0,1,796.47,439.67Z" transform="translate(-30.42 -309.45)" style="fill:#fff"/><path d="M839.74,428.12c6-1.14,12.85-1.34,18,2.4a16.84,16.84,0,0,1-6,30.22,36.25,36.25,0,0,1-9,.3,16.88,16.88,0,0,1-2.94-32.92Zm1.08,9.06a8.14,8.14,0,0,0-4.17,8.39,8.06,8.06,0,0,0,7.7,6.74c3.4.24,7.43.18,9.74-2.79,4-4.16,1.45-11.87-4.14-13C846.94,436.13,843.63,435.83,840.82,437.18Z" transform="translate(-30.42 -309.45)" style="fill:#fff"/><path d="M868.22,440.64a13,13,0,0,1,8.91-12.54c5.12-1.24,11.1-1.08,15.34,2.44,3.93-3.25,9.28-3.53,14.11-2.79a13.15,13.15,0,0,1,9.6,9c.73,2.31.52,4.75.55,7.14-.05,5.82.07,11.65-.07,17.46-3.49-.2-7.49-1.74-8.33-5.54-1.1-5.38,0-10.93-.61-16.36-.88-3.59-5.34-3.49-8.2-2.82-3.28,1.3-2.58,5.25-2.62,8.06-.18,4,.56,8.12-.7,12-1.2,3.33-4.9,4.46-8.1,4.61,0-6.84,0-13.69,0-20.54a4.29,4.29,0,0,0-4.68-4.39c-2.38-.3-5.37.26-6.12,2.89-.72,5.64.57,11.46-.76,17-1,3.54-4.88,4.83-8.21,5C868.13,454.4,868.26,447.52,868.22,440.64Z" transform="translate(-30.42 -309.45)" style="fill:#fff"/><path d="M785,451.59a5,5,0,0,1,6.94,5.08c-.18,3.85-5.52,5.86-8.25,3.18A5,5,0,0,1,785,451.59Z" transform="translate(-30.42 -309.45)" style="fill:#fff"/><polygon points="661.59 148.98 700.68 109.68 740.03 149.1 718.23 149.1 700.5 131.17 682.35 149.11 661.59 148.98" style="fill:#202c5f"/><path d="M698.3,458.44c10.89-11,21.89-21.91,32.82-32.87q16.51,16.47,33,32.92c-3.21,0-6.4,0-9.6,0-7.82-7.86-15.71-15.68-23.56-23.52l-23.65,23.55C704.33,458.46,701.32,458.45,698.3,458.44Z" transform="translate(-30.42 -309.45)" style="fill:url(#linear-gradient-6)"/></svg>