<svg xmlns="http://www.w3.org/2000/svg" xmlns:xlink="http://www.w3.org/1999/xlink" viewBox="0 0 164.51 35.38"><defs><style>.cls-1{fill:#fff;}.cls-2{fill:url(#linear-gradient);}.cls-3{fill:url(#linear-gradient-2);}.cls-4{fill:#1f1b49;}.cls-5{fill:url(#linear-gradient-3);}.cls-6{fill:url(#linear-gradient-4);}.cls-7{fill:url(#linear-gradient-5);}.cls-8{fill:#4592e9;}.cls-9{fill:#202c5f;}.cls-10{fill:url(#linear-gradient-6);}</style><linearGradient id="linear-gradient" y1="17.69" x2="35.28" y2="17.69" gradientUnits="userSpaceOnUse"><stop offset="0" stop-color="#4591e8"/><stop offset="0.69" stop-color="#213167"/><stop offset="1" stop-color="#202c5f"/></linearGradient><linearGradient id="linear-gradient-2" x1="17.06" y1="20.02" x2="17.06" y2="6.81" xlink:href="#linear-gradient"/><linearGradient id="linear-gradient-3" x1="17.71" y1="28.45" x2="17.71" y2="13.74" xlink:href="#linear-gradient"/><linearGradient id="linear-gradient-4" x1="12.92" y1="32.81" x2="25.84" y2="10.43" xlink:href="#linear-gradient"/><linearGradient id="linear-gradient-5" x1="41.79" y1="22.16" x2="54.76" y2="22.16" gradientUnits="userSpaceOnUse"><stop offset="0" stop-color="#4592e9"/><stop offset="0.69" stop-color="#202c5f"/><stop offset="1" stop-color="#202c5f"/></linearGradient><linearGradient id="linear-gradient-6" x1="130.08" y1="21.55" x2="130.08" y2="27.66" xlink:href="#linear-gradient-5"/></defs><g id="Layer_2" data-name="Layer 2"><g id="Layer_1-2" data-name="Layer 1"><circle class="cls-1" cx="17.58" cy="17.93" r="17.3"/><path class="cls-2" d="M6.75,3.74A17.71,17.71,0,1,1,1.6,25.16c-.09-.26-.28-.5-.24-.78A3.81,3.81,0,0,1,2,24c0,.13.13.39.18.52L6.26,22a12.07,12.07,0,0,0,4.12,5.47A11.91,11.91,0,0,0,29,20.65a12.18,12.18,0,0,0,.07-5.44l4.68-2.1a21,21,0,0,0-.86-2.37c-.13.22-.26.45-.4.67a8.42,8.42,0,0,1-.4-.86c.2,0,.59.13.79.16A16.88,16.88,0,0,0,11.23,2.13a17,17,0,0,0-8.94,8.52A17.34,17.34,0,0,0,2,24c-.23.14-.25.82-.56.7A19.52,19.52,0,0,1,.26,14.38,17.65,17.65,0,0,1,6.75,3.74Z"/><path class="cls-3" d="M12.53,8a10.83,10.83,0,0,1,14.93,5.43L17.18,18.37l-4.11-3.11L6.92,20A10.84,10.84,0,0,1,12.53,8Z"/><path class="cls-4" d="M28.51,12.11A4.08,4.08,0,0,1,32,10.53a3.78,3.78,0,0,0,.49,1A4,4,0,0,1,29,13.25a4.89,4.89,0,0,1-.75,1.05c-.33-.63-.63-1.28-.95-1.91.42,0,.85,0,1.27,0Zm1.92-.82a.55.55,0,1,0,.76.61A.56.56,0,0,0,30.43,11.29Z"/><path class="cls-4" d="M27.45,11.16a8,8,0,0,1,1.12-.5c.28.1.43.38.65.57-.28.24-.52.52-.81.75C27.87,12.13,27.64,11.54,27.45,11.16Z"/><path class="cls-4" d="M31.29,13.17c.54-.41,1-.88,1.55-1.31A3.2,3.2,0,0,1,31.29,13.17Z"/><path class="cls-4" d="M29.06,13.48a5.53,5.53,0,0,1,1.16-.21c0,.28.14.59,0,.86a6.84,6.84,0,0,1-1.07.57C29,14.33,28.68,13.83,29.06,13.48Z"/><path class="cls-5" d="M16.33,20.6l11.26-6.86A10.86,10.86,0,0,1,26,24.3c0-2.92,0-5.85,0-8.77l-2.4,1.37c0,3.22,0,6.45,0,9.68a12.4,12.4,0,0,1-2.68,1.33c0-3.12,0-6.24,0-9.36l-2.4,1.38v8.48a12.65,12.65,0,0,1-2.68-.08V21.1L13.41,19c0,2.9,0,5.8,0,8.69a11.84,11.84,0,0,1-2.68-1.57c0-2.22,0-4.43,0-6.64l-2.4,1.37c0,.85,0,1.7,0,2.55a10.82,10.82,0,0,1-1.18-2.56l5.66-3.47Z"/><circle class="cls-4" cx="30.63" cy="11.8" r="0.39"/><path class="cls-6" d="M3.87,24.38l.64-.22a14.61,14.61,0,0,0,22.62,5,14.69,14.69,0,0,0,5.22-11.64A15.39,15.39,0,0,0,32,14.6l.69-.24A15.31,15.31,0,0,1,7,28.81,15.79,15.79,0,0,1,3.87,24.38Z"/><path class="cls-4" d="M4.5,21.8a1.36,1.36,0,0,1-1-.11A1.12,1.12,0,0,1,3,20.94a1.22,1.22,0,0,1,0-.63,1.11,1.11,0,0,1,.35-.5A1.37,1.37,0,0,1,4,19.53a1.43,1.43,0,0,1,.68,0,1.07,1.07,0,0,1,.53.32,1.27,1.27,0,0,1,.28.54,1.15,1.15,0,0,1,0,.64,1.12,1.12,0,0,1-.35.51A1.53,1.53,0,0,1,4.5,21.8Zm-.07-.33a.94.94,0,0,0,.62-.39.78.78,0,0,0,.12-.63.77.77,0,0,0-.39-.53A1,1,0,0,0,4,19.85a1.32,1.32,0,0,0-.48.21.82.82,0,0,0-.3.82.81.81,0,0,0,.36.52A1.06,1.06,0,0,0,4.43,21.47Z"/><path class="cls-4" d="M5.75,17.83,3.3,17.72v-.27h.23a.62.62,0,0,1-.25-.53.74.74,0,0,1,.14-.39.72.72,0,0,1,.34-.25,1.41,1.41,0,0,1,.47-.07,1.21,1.21,0,0,1,.48.12.75.75,0,0,1,.42.7.56.56,0,0,1-.07.26.79.79,0,0,1-.17.19l.86,0Zm-1.54-.34a.78.78,0,0,0,.51-.12.39.39,0,0,0,.17-.32.41.41,0,0,0-.15-.35.8.8,0,0,0-.52-.17.78.78,0,0,0-.51.12.37.37,0,0,0-.18.32.44.44,0,0,0,.16.35A.85.85,0,0,0,4.21,17.49Z"/><path class="cls-4" d="M4.5,14.69a.93.93,0,0,1-.62-.46.8.8,0,0,1,0-.59.76.76,0,0,1,.39-.51.92.92,0,0,1,.7,0,1.31,1.31,0,0,1,.49.25.85.85,0,0,1,.21.37.94.94,0,0,1,0,.44.78.78,0,0,1-.4.51A1,1,0,0,1,4.5,14.69Zm.09-.3a.69.69,0,0,0,.53,0,.45.45,0,0,0,.26-.31.44.44,0,0,0,0-.4.83.83,0,0,0-.46-.29.71.71,0,0,0-.52,0,.47.47,0,0,0-.27.31.48.48,0,0,0,.06.4A.72.72,0,0,0,4.59,14.39Z"/><path class="cls-4" d="M6.45,12l-1.36-.72L5,11.46l-.21-.11.13-.23L4.72,11a.69.69,0,0,1-.22-.15.43.43,0,0,1-.09-.22.5.5,0,0,1,.08-.31,1.28,1.28,0,0,1,.15-.23l.21.16a.6.6,0,0,0-.09.15.23.23,0,0,0,0,.2s.07.1.16.15l.15.08.16-.31.21.11L5.23,11l1.36.71Z"/><path class="cls-4" d="M6.73,9.77a.87.87,0,0,1-.39-.68.83.83,0,0,1,.2-.55.82.82,0,0,1,.57-.31.92.92,0,0,1,.65.25,1,1,0,0,1,.35.42.75.75,0,0,1,.05.42.87.87,0,0,1-.19.4A.82.82,0,0,1,7.4,10,.93.93,0,0,1,6.73,9.77Zm.19-.24a.72.72,0,0,0,.49.21.46.46,0,0,0,.37-.18.45.45,0,0,0,.1-.39.75.75,0,0,0-.3-.45.76.76,0,0,0-.48-.2.53.53,0,0,0-.37.18.46.46,0,0,0-.1.39A.73.73,0,0,0,6.92,9.53Z"/><path class="cls-4" d="M9.54,8.07,8.44,6.69l.21-.17.17.21a.66.66,0,0,1,0-.31.3.3,0,0,1,.12-.17.57.57,0,0,1,.3-.11l.09.28a.49.49,0,0,0-.21.08.27.27,0,0,0-.1.16.28.28,0,0,0,0,.2,1.19,1.19,0,0,0,.18.3l.58.73Z"/><path class="cls-4" d="M12.21,5.73l.29-.1a.68.68,0,0,1-.06.49.91.91,0,0,1-1,.42.87.87,0,0,1-.5-.5.9.9,0,0,1-.1-.72.75.75,0,0,1,.42-.49.81.81,0,0,1,.63,0,1,1,0,0,1,.5.51.34.34,0,0,1,0,.08L11.2,6a.69.69,0,0,0,.35.33.47.47,0,0,0,.4,0,.41.41,0,0,0,.21-.2A.58.58,0,0,0,12.21,5.73Zm-1.1,0L12,5.29A.6.6,0,0,0,11.74,5a.49.49,0,0,0-.41,0,.53.53,0,0,0-.25.28A.56.56,0,0,0,11.11,5.73Z"/><path class="cls-4" d="M13.91,5.66l.67-1.44-1.06-1,.38-.08.56.53a1.91,1.91,0,0,1,.25.25,2.73,2.73,0,0,1,.14-.31l.35-.74.34-.07-.61,1.3L16.1,5.2l-.39.08-.78-.73-.14-.13c0,.09-.06.16-.07.2l-.43,1Z"/><path class="cls-4" d="M17.54,5.17V4.83h.35v.34Z"/><path class="cls-4" d="M20.78,4.91l.28.1a.85.85,0,0,1-.34.42.77.77,0,0,1-.52.06.73.73,0,0,1-.52-.35,1,1,0,0,1-.08-.71A1.26,1.26,0,0,1,19.8,4a.69.69,0,0,1,.35-.26.82.82,0,0,1,.44,0,.76.76,0,0,1,.43.24.67.67,0,0,1,.14.45l-.29,0a.59.59,0,0,0-.09-.29.43.43,0,0,0-.23-.14.51.51,0,0,0-.4.08.83.83,0,0,0-.24.48.83.83,0,0,0,0,.53.45.45,0,0,0,.32.23.41.41,0,0,0,.31,0A.6.6,0,0,0,20.78,4.91Z"/><path class="cls-4" d="M22.49,5.2a.8.8,0,0,1,1.14-.48.78.78,0,0,1,.44.47.93.93,0,0,1-.07.7,1.23,1.23,0,0,1-.33.44.7.7,0,0,1-.4.15.84.84,0,0,1-.43-.09.78.78,0,0,1-.44-.47A1,1,0,0,1,22.49,5.2Zm.27.13a.81.81,0,0,0-.08.53.49.49,0,0,0,.27.31.47.47,0,0,0,.4,0,.76.76,0,0,0,.36-.4.78.78,0,0,0,.08-.52.5.5,0,0,0-.68-.31A.8.8,0,0,0,22.76,5.33Z"/><path class="cls-4" d="M24.83,7.45,26,6.11l.21.18L26,6.48a.65.65,0,0,1,.31,0,.71.71,0,0,1,.29.14.61.61,0,0,1,.19.28.49.49,0,0,1,0,.29.6.6,0,0,1,.61.12.5.5,0,0,1,.21.38.59.59,0,0,1-.19.43L26.64,9l-.23-.19L27.14,8a.71.71,0,0,0,.15-.22.29.29,0,0,0,0-.16.33.33,0,0,0-.11-.16.45.45,0,0,0-.31-.11.55.55,0,0,0-.36.22l-.67.78-.23-.2.76-.87A.5.5,0,0,0,26.52,7a.27.27,0,0,0-.11-.23.51.51,0,0,0-.22-.11.37.37,0,0,0-.25,0,1.08,1.08,0,0,0-.28.24l-.6.69Z"/><path class="cls-7" d="M44.54,16.63a7,7,0,0,1,6.21-1.1,7.08,7.08,0,0,1,4,3.2,7.15,7.15,0,0,0-3-2.58,6.61,6.61,0,1,0-2.13,12.66A7.31,7.31,0,0,0,52.39,28l-.06-.08c.5-.19.85-.65,1.35-.84a7.1,7.1,0,0,1-3.35,1.84,6.93,6.93,0,0,1-5.79-12.27Z"/><path class="cls-8" d="M85.36,14.72A3.58,3.58,0,0,1,88.64,12c1.12,0,2.23,0,3.35,0a3.11,3.11,0,0,1-3.06,3c-.68-.06-.68.72-.67,1.2,1,0,2,0,3,0a3.13,3.13,0,0,1-3,3.05c0,1.8,0,3.59,0,5.39A3,3,0,0,1,87.33,27a3.62,3.62,0,0,1-2,.66c0-2.82,0-5.63,0-8.45H83.53a3.22,3.22,0,0,1,1.75-2.75A8.52,8.52,0,0,1,85.36,14.72Z"/><path class="cls-9" d="M47.58,14.25a7.89,7.89,0,1,1-5,2.93A7.87,7.87,0,0,1,47.58,14.25Zm-3,2.38A6.93,6.93,0,0,0,50.33,28.9a7.1,7.1,0,0,0,3.35-1.84,5.43,5.43,0,0,1-1,.73l-.32.19a7.31,7.31,0,0,1-2.81.83,6.6,6.6,0,1,1,2.13-12.66,7.15,7.15,0,0,1,3,2.58,7.08,7.08,0,0,0-4-3.2A7,7,0,0,0,44.54,16.63Zm2.9.28a5.33,5.33,0,1,0,3.6.41A5.27,5.27,0,0,0,47.44,16.91Z"/><path class="cls-8" d="M136.16,14.18h4.05L132,22.3c1.78,1.8,3.58,3.58,5.36,5.37h-4c-1.1-1.11-2.19-2.23-3.29-3.33-1.12,1.11-2.25,2.21-3.37,3.33l-3.85,0q2.76-2.77,5.53-5.53c-1.78-1.8-3.58-3.57-5.36-5.37l3.85,0,3.38,3.33Z"/><path class="cls-8" d="M59.74,16.47a6,6,0,0,1,2.42-.27,14.78,14.78,0,0,1,2.49.1,5.73,5.73,0,0,1-1,11.36,3.08,3.08,0,0,1-2.84-3c1,0,2,0,3,0a2.72,2.72,0,0,0,0-5.43c-.88,0-1.77,0-2.65,0a.62.62,0,0,0-.57.68c0,3,0,6,0,9a3,3,0,0,1-1,2.34,3.56,3.56,0,0,1-2.06.64c0-4.05,0-8.1,0-12.14A3.67,3.67,0,0,1,59.74,16.47Z"/><path class="cls-8" d="M74.8,16.31a12.31,12.31,0,0,1,3.21,0,5.72,5.72,0,0,1-.48,11.37,20.38,20.38,0,0,1-2.21,0,5.76,5.76,0,0,1-4.75-3.72,5.92,5.92,0,0,1-.23-3.12A5.78,5.78,0,0,1,74.8,16.31Zm.46,3a2.75,2.75,0,0,0-.34,5.19,6.22,6.22,0,0,0,2.32.19,2.74,2.74,0,0,0,.53-5.39A8.12,8.12,0,0,0,75.26,19.28Z"/><path class="cls-8" d="M95.81,16.31a13,13,0,0,1,3.06-.06A5.71,5.71,0,0,1,103,18.88a5.71,5.71,0,0,1-4.59,8.77,7.36,7.36,0,0,1-4.29-.74,5.85,5.85,0,0,1-2.72-3.65,5.76,5.76,0,0,1,4.42-7Zm.46,3a2.78,2.78,0,0,0-2,2.41,2.74,2.74,0,0,0,2.53,3,9.36,9.36,0,0,0,2-.08,2.74,2.74,0,0,0,0-5.31A8.12,8.12,0,0,0,96.27,19.28Z"/><path class="cls-8" d="M104.92,19.76a3.62,3.62,0,0,1,3.39-3.56c1.06,0,2.11,0,3.17,0a3.12,3.12,0,0,1-2,2.84,7.19,7.19,0,0,1-1.14.23.61.61,0,0,0-.4.65c0,1.63,0,3.26,0,4.9a2.82,2.82,0,0,1-.85,2.17,3.69,3.69,0,0,1-2.16.7C104.92,25,104.91,22.4,104.92,19.76Z"/><path class="cls-8" d="M111.56,22a5.76,5.76,0,0,1,4.62-5.68,12.94,12.94,0,0,1,2.49-.09,3.84,3.84,0,0,1,3.26,1.95,3.46,3.46,0,0,1-.53,4,3.77,3.77,0,0,1-5.08.37,3,3,0,0,1-1-2.19c1.17,0,2.34,0,3.51,0a.57.57,0,0,0,.42-.87c-.17-.32-.57-.3-.88-.3a5.46,5.46,0,0,0-2.24.25,2.74,2.74,0,0,0,.74,5.19c1,.09,1.91,0,2.85.06a3.1,3.1,0,0,1,2.52,3c-1.78,0-3.55,0-5.33,0A5.74,5.74,0,0,1,111.56,22Z"/><path class="cls-8" d="M142.18,24.17a3.12,3.12,0,0,1,3-2.26c.84,0,1.68,0,2.52,0a1.82,1.82,0,0,1-.85,1.39c-.7.46-1.61,0-2.33.4a1.51,1.51,0,0,0-.77,1.55,1.49,1.49,0,0,0,1.43,1.25c.61,0,1.31-.1,1.82.33a1.86,1.86,0,0,1,.7,1.3c-.84,0-1.68,0-2.52,0a3.1,3.1,0,0,1-2.62-1.48A3.18,3.18,0,0,1,142.18,24.17Z"/><path class="cls-8" d="M150.22,22a4.25,4.25,0,0,1,3.33.44,3.13,3.13,0,0,1-1.12,5.61,6.22,6.22,0,0,1-1.67.05,3.13,3.13,0,0,1-.54-6.1Zm.19,1.68a1.51,1.51,0,0,0-.77,1.55,1.5,1.5,0,0,0,1.43,1.26,2,2,0,0,0,1.81-.52,1.5,1.5,0,0,0-.77-2.42A3.08,3.08,0,0,0,150.41,23.71Z"/><path class="cls-8" d="M155.5,24.35A2.42,2.42,0,0,1,157.15,22a3.24,3.24,0,0,1,2.85.46,3.25,3.25,0,0,1,2.62-.52,2.43,2.43,0,0,1,1.78,1.66,4.51,4.51,0,0,1,.11,1.32c0,1.08,0,2.17,0,3.25a1.54,1.54,0,0,1-1.54-1c-.21-1,0-2-.12-3-.16-.67-1-.65-1.52-.52s-.48,1-.49,1.49a8.22,8.22,0,0,1-.12,2.22,1.58,1.58,0,0,1-1.51.86c0-1.27,0-2.54,0-3.81a.79.79,0,0,0-.86-.82c-.44-.05-1,.05-1.14.54a27.64,27.64,0,0,1-.14,3.16,1.56,1.56,0,0,1-1.52.94C155.48,26.9,155.51,25.63,155.5,24.35Z"/><path class="cls-8" d="M140.06,26.38a.92.92,0,1,1-.25,1.53A.93.93,0,0,1,140.06,26.38Z"/><polygon class="cls-9" points="122.8 27.65 130.05 20.36 137.35 27.67 133.31 27.67 130.02 24.34 126.65 27.68 122.8 27.65"/><path class="cls-10" d="M124,27.65c2-2,4.07-4.06,6.1-6.1l6.13,6.11h-1.78c-1.45-1.46-2.92-2.91-4.38-4.37l-4.39,4.37Z"/></g></g></svg>