<svg xmlns="http://www.w3.org/2000/svg" viewBox="0 0 54.92 40.87"><defs><style>.cls-1{fill:#f9f9f9;}.cls-2{fill:#fff;}.cls-3{fill:#f7eef2;}</style></defs><g id="Layer_2" data-name="Layer 2"><g id="Layer_1-2" data-name="Layer 1"><path class="cls-1" d="M34.44,36.14a.87.87,0,0,0-.53-.37.84.84,0,0,0-.64.12A20.46,20.46,0,1,1,11,1.55.84.84,0,0,0,11.27.39.84.84,0,0,0,10.1.14a22.15,22.15,0,0,0,12,40.73A22.48,22.48,0,0,0,29,39.79a22.73,22.73,0,0,0,5.22-2.48.84.84,0,0,0,.36-.54A.82.82,0,0,0,34.44,36.14Z"/><path class="cls-2" d="M25.42,36.11a.84.84,0,0,0-1-.72A16.83,16.83,0,0,1,17,2.71a16.48,16.48,0,0,1,2.86-.66.82.82,0,0,0,.55-.33.79.79,0,0,0,.16-.63.8.8,0,0,0-.32-.55.8.8,0,0,0-.63-.16,18.8,18.8,0,0,0-3.14.72,18.52,18.52,0,0,0-4.05,33.37,18.61,18.61,0,0,0,9.76,2.77,19.74,19.74,0,0,0,2.55-.17l.15,0A.83.83,0,0,0,25.42,36.11Z"/><path class="cls-3" d="M27,4.89a.82.82,0,0,0-.5-.41A14.9,14.9,0,0,0,17.77,33,.73.73,0,0,0,18,33a.75.75,0,0,0,.26,0h0a.83.83,0,0,0,.55-.56.84.84,0,0,0-.56-1A13.21,13.21,0,1,1,26,6.09.8.8,0,0,0,26.66,6a.82.82,0,0,0,.41-.5A.8.8,0,0,0,27,4.89Z"/><path class="cls-2" d="M30,10.93a.86.86,0,0,0-.27-.58A11.27,11.27,0,0,0,11.42,22.19a11.2,11.2,0,0,0,3.17,4.9.85.85,0,0,0,.83.18.88.88,0,0,0,.36-.24.84.84,0,0,0-.06-1.19A9.59,9.59,0,0,1,19.19,9.6a9.65,9.65,0,0,1,9.38,2,.83.83,0,0,0,1.19-.06A.8.8,0,0,0,30,10.93Z"/><path class="cls-3" d="M29.19,15.74a7.65,7.65,0,0,0-14.33,5.34,6.62,6.62,0,0,0,.24.62.85.85,0,0,0,.78.52.73.73,0,0,0,.25,0h0l.07,0a.84.84,0,0,0,.45-1.1c-.07-.17-.13-.33-.18-.49a6,6,0,0,1,11.16-4.17.88.88,0,0,0,.47.46.84.84,0,0,0,.64,0,.85.85,0,0,0,.45-1.1Z"/><path class="cls-2" d="M26,17.48a4,4,0,0,0-7.87,1.1.85.85,0,0,0,.82.87.83.83,0,0,0,.87-.81,2.38,2.38,0,0,1,1.62-2.15A2.35,2.35,0,0,1,24.37,18a2.42,2.42,0,0,1,.11.8.86.86,0,0,0,.82.88h0a.78.78,0,0,0,.26,0,.85.85,0,0,0,.58-.77A4.1,4.1,0,0,0,26,17.48Z"/><path class="cls-1" d="M18.76,21.68h4.15v1.56H20.34v1.52h2.57v1.53H20.34v3.77H18.76Z"/><path class="cls-1" d="M24.48,21.31a1,1,0,0,1,.7.3,1,1,0,0,1,0,1.43.94.94,0,0,1-.69.29,1,1,0,0,1-.71-.3,1,1,0,0,1-.29-.73,1,1,0,0,1,1-1Zm-.78,2.55h1.55v6.2H23.7Z"/><path class="cls-1" d="M27.92,21.47v3.08a2.87,2.87,0,0,1,.91-.63,2.59,2.59,0,0,1,1.05-.21,2.72,2.72,0,0,1,2.06.91A3.35,3.35,0,0,1,32.78,27a3.26,3.26,0,0,1-.87,2.32,2.78,2.78,0,0,1-2.08.93,2.54,2.54,0,0,1-1-.19,3.12,3.12,0,0,1-.91-.63v.66H26.37V21.47Zm1.63,3.67a1.64,1.64,0,0,0-1.22.5A1.82,1.82,0,0,0,27.85,27a1.88,1.88,0,0,0,.48,1.34,1.68,1.68,0,0,0,2.42,0A1.89,1.89,0,0,0,31.24,27a1.82,1.82,0,0,0-.48-1.31A1.59,1.59,0,0,0,29.55,25.14Z"/><path class="cls-1" d="M36.69,23.71a3.33,3.33,0,0,1,1.65.43,3.26,3.26,0,0,1,1.2,1.19A3.21,3.21,0,0,1,40,27a3.27,3.27,0,0,1-.43,1.64,3.23,3.23,0,0,1-2.84,1.62,3.26,3.26,0,0,1,0-6.51Zm0,1.46a1.61,1.61,0,0,0-1.21.5A1.81,1.81,0,0,0,35,27a1.84,1.84,0,0,0,.47,1.31,1.58,1.58,0,0,0,1.21.5,1.61,1.61,0,0,0,1.21-.5A1.8,1.8,0,0,0,38.41,27a1.77,1.77,0,0,0-.48-1.29A1.56,1.56,0,0,0,36.72,25.17Z"/><path class="cls-3" d="M47.24,21.47v8.59h-.79V29a3.32,3.32,0,0,1-1.12.92,3,3,0,0,1-1.37.31,3,3,0,0,1-2.24-.95,3.21,3.21,0,0,1-.93-2.33,3.1,3.1,0,0,1,.94-2.28A3,3,0,0,1,44,23.71a2.87,2.87,0,0,1,1.38.32,3.19,3.19,0,0,1,1.08,1V21.47Zm-3.19,3a2.41,2.41,0,0,0-1.23.33,2.46,2.46,0,0,0-.89.92A2.51,2.51,0,0,0,41.6,27a2.54,2.54,0,0,0,.33,1.25,2.51,2.51,0,0,0,.9.93,2.4,2.4,0,0,0,1.22.33,2.5,2.5,0,0,0,1.24-.33,2.27,2.27,0,0,0,.9-.89A2.54,2.54,0,0,0,46.5,27a2.46,2.46,0,0,0-.7-1.79A2.35,2.35,0,0,0,44.05,24.47Z"/><path class="cls-3" d="M54.92,23.86v6.2h-.78V29a3.35,3.35,0,0,1-1.13.92,3,3,0,0,1-1.36.31,3,3,0,0,1-2.25-.95,3.21,3.21,0,0,1-.93-2.33,3.14,3.14,0,0,1,.94-2.28,3,3,0,0,1,2.26-.95,2.87,2.87,0,0,1,1.38.32,3.13,3.13,0,0,1,1.09,1V23.86Zm-3.18.61a2.39,2.39,0,0,0-1.23.33,2.48,2.48,0,0,0-.9.92A2.51,2.51,0,0,0,49.28,27a2.45,2.45,0,0,0,.34,1.25,2.41,2.41,0,0,0,2.11,1.26A2.48,2.48,0,0,0,53,29.15a2.27,2.27,0,0,0,.9-.89A2.55,2.55,0,0,0,54.19,27a2.47,2.47,0,0,0-.71-1.79A2.31,2.31,0,0,0,51.74,24.47Z"/></g></g></svg>