<svg xmlns="http://www.w3.org/2000/svg" xmlns:xlink="http://www.w3.org/1999/xlink" viewBox="0 0 65.77 62.77"><defs><style>.cls-1{fill:url(#linear-gradient);}.cls-2{fill:url(#linear-gradient-2);}.cls-3{fill:url(#linear-gradient-3);}.cls-4{fill:url(#linear-gradient-4);}.cls-5{fill:url(#linear-gradient-5);}.cls-6{fill:url(#linear-gradient-6);}.cls-7{fill:url(#linear-gradient-7);}.cls-8{fill:url(#linear-gradient-8);}.cls-9{fill:url(#linear-gradient-9);}</style><linearGradient id="linear-gradient" x1="20.17" y1="37.08" x2="59.51" y2="37.08" gradientUnits="userSpaceOnUse"><stop offset="0" stop-color="#4591e8"/><stop offset="0.6" stop-color="#213167"/><stop offset="1" stop-color="#202c5f"/></linearGradient><linearGradient id="linear-gradient-2" x1="0" y1="31.39" x2="65.77" y2="31.39" xlink:href="#linear-gradient"/><linearGradient id="linear-gradient-3" x1="0.38" y1="44.81" x2="3.45" y2="44.81" xlink:href="#linear-gradient"/><linearGradient id="linear-gradient-4" x1="55.55" y1="54.44" x2="58.63" y2="54.44" xlink:href="#linear-gradient"/><linearGradient id="linear-gradient-5" x1="32.72" y1="34.12" x2="50.75" y2="34.12" xlink:href="#linear-gradient"/><linearGradient id="linear-gradient-6" x1="38.16" y1="23.97" x2="41.52" y2="23.97" xlink:href="#linear-gradient"/><linearGradient id="linear-gradient-7" x1="38.16" y1="49.78" x2="41.52" y2="49.78" xlink:href="#linear-gradient"/><linearGradient id="linear-gradient-8" x1="49.91" y1="37.08" x2="55.51" y2="37.08" xlink:href="#linear-gradient"/><linearGradient id="linear-gradient-9" x1="24.18" y1="37.08" x2="29.77" y2="37.08" xlink:href="#linear-gradient"/></defs><g id="Layer_2" data-name="Layer 2"><g id="Layer_1-2" data-name="Layer 1"><path class="cls-1" d="M39.84,17.41A19.67,19.67,0,1,0,59.51,37.08,19.69,19.69,0,0,0,39.84,17.41Zm0,36A16.32,16.32,0,1,1,56.16,37.08,16.34,16.34,0,0,1,39.84,53.4Z"/><path class="cls-2" d="M45.94,12V9a4.64,4.64,0,0,0-1.67-9H35.41a4.64,4.64,0,0,0-1.67,9v3.11a25.72,25.72,0,0,0-13.89,9c-.11,0-.18-.12-.29-.12H9.25a1.68,1.68,0,0,0,0,3.35h8.43a25.4,25.4,0,0,0-1.85,4H1.68a1.68,1.68,0,1,0,0,3.35H14.79a23.93,23.93,0,0,0-.4,3.71H8.78a1.68,1.68,0,0,0,0,3.35H14.4A25,25,0,0,0,15,43H6.77a1.68,1.68,0,1,0,0,3.35h9.28A25.73,25.73,0,0,0,54.3,58.45a1.68,1.68,0,0,0-1.86-2.8,22.42,22.42,0,1,1-17-40.58h0c.05,0,.07-.05.11-.05A22.84,22.84,0,0,1,40,14.58,22.41,22.41,0,0,1,58.72,49.33a1.68,1.68,0,0,0,2.8,1.85A25.72,25.72,0,0,0,45.94,12ZM35.41,3.35h8.86a1.31,1.31,0,0,1,0,2.61H35.41a1.31,1.31,0,0,1,0-2.61Zm1.68,8.17V9.31h5.5v2.18A24.42,24.42,0,0,0,40,11.22,25.38,25.38,0,0,0,37.09,11.52Z"/><path class="cls-3" d="M1.91,43.27a1.54,1.54,0,1,0,1.54,1.54A1.53,1.53,0,0,0,1.91,43.27Z"/><path class="cls-4" d="M57.09,52.9a1.54,1.54,0,1,0,1.54,1.54A1.54,1.54,0,0,0,57.09,52.9Z"/><path class="cls-5" d="M50.26,29a1.68,1.68,0,1,0-2.37-2.37L42,32.51a4.8,4.8,0,0,0-4-.11l-2.35-2.35a1.68,1.68,0,1,0-2.37,2.37l2.25,2.25a5,5,0,0,0-.69,2.41,5.07,5.07,0,1,0,9.58-2.22ZM39.84,38.79a1.72,1.72,0,1,1,1.72-1.71A1.72,1.72,0,0,1,39.84,38.79Z"/><path class="cls-6" d="M39.84,26.77a1.68,1.68,0,0,0,1.68-1.68V22.85a1.68,1.68,0,1,0-3.36,0v2.24A1.68,1.68,0,0,0,39.84,26.77Z"/><path class="cls-7" d="M39.84,47a1.68,1.68,0,0,0-1.68,1.68V50.9a1.68,1.68,0,1,0,3.36,0V48.66A1.68,1.68,0,0,0,39.84,47Z"/><path class="cls-8" d="M53.83,35.4H51.58a1.68,1.68,0,0,0,0,3.35h2.25a1.68,1.68,0,1,0,0-3.35Z"/><path class="cls-9" d="M28.1,35.4H25.85a1.68,1.68,0,0,0,0,3.35H28.1a1.68,1.68,0,0,0,0-3.35Z"/></g></g></svg>